<?xml version="1.0" encoding="UTF-8" standalone="no"?>
<!-- Generator: Adobe Illustrator 16.0.0, SVG Export Plug-In . SVG Version: 6.00 Build 0)  -->

<svg
   xmlns:dc="http://purl.org/dc/elements/1.1/"
   xmlns:cc="http://creativecommons.org/ns#"
   xmlns:rdf="http://www.w3.org/1999/02/22-rdf-syntax-ns#"
   xmlns:svg="http://www.w3.org/2000/svg"
   xmlns="http://www.w3.org/2000/svg"
   xmlns:sodipodi="http://sodipodi.sourceforge.net/DTD/sodipodi-0.dtd"
   xmlns:inkscape="http://www.inkscape.org/namespaces/inkscape"
   version="1.1"
   id="Capa_1"
   x="0px"
   y="0px"
   width="321.43484"
   height="202.78668"
   viewBox="0 0 321.43484 202.78669"
   xml:space="preserve"
   inkscape:version="0.92.3 (2405546, 2018-03-11)"
   sodipodi:docname="adminPages.svg"><metadata
     id="metadata51"><rdf:RDF><cc:Work
         rdf:about=""><dc:format>image/svg+xml</dc:format><dc:type
           rdf:resource="http://purl.org/dc/dcmitype/StillImage" /><dc:title /></cc:Work></rdf:RDF></metadata><defs
     id="defs49" /><sodipodi:namedview
     pagecolor="#ffffff"
     bordercolor="#666666"
     borderopacity="1"
     objecttolerance="10"
     gridtolerance="10"
     guidetolerance="10"
     inkscape:pageopacity="0"
     inkscape:pageshadow="2"
     inkscape:window-width="1280"
     inkscape:window-height="743"
     id="namedview47"
     showgrid="false"
     inkscape:zoom="2.1127508"
     inkscape:cx="159.87197"
     inkscape:cy="76.741933"
     inkscape:window-x="0"
     inkscape:window-y="0"
     inkscape:window-maximized="1"
     inkscape:current-layer="Capa_1"
     fit-margin-top="0"
     fit-margin-left="0"
     fit-margin-right="0"
     fit-margin-bottom="0" /><path
     d="m 200.08214,157.90669 c 0.231,0.031 0.464,0.047 0.696,0.047 0.774,0 1.539,-0.168 2.246,-0.49 l 111.254,-50.746 c 2.305,-1.047 3.564,-3.552 3.043,-6.033 -0.527,-2.473001 -2.7,-4.253001 -5.231,-4.282001 -0.907,-0.011 -90.988,-1.928 -130.961,-81.815003 -3.775,-7.5389996 -13.067,-12.0419996 -21.097,-10.1149996 L 67.170136,26.846686 c -4.482,1.081 -8.052,3.937 -9.79,7.831 -1.701,3.807 -1.463,8.234 0.648,12.149 16.13,29.953003 62.267004,100.723004 142.054004,111.080004 z"
     id="path7"
     style="fill:#ff0000;fill-opacity:1;stroke:#000000;stroke-width:2;stroke-miterlimit:4;stroke-dasharray:none;stroke-opacity:1"
     inkscape:connector-curvature="0"
     sodipodi:nodetypes="cscccccccccc" /><path
     d="m 312.03714,148.58369 -28.931,0 -83.014,39.624 -3.618,0.016 c -50.195,0 -90.624,-8.88 -120.849004,-19.311 l -74.1300001,29.874 196.6730041,0 113.869,-50.203 z"
     id="path13"
     style="fill:none;fill-opacity:1;stroke:#000000;stroke-width:2;stroke-miterlimit:4;stroke-dasharray:none;stroke-opacity:1"
     inkscape:connector-curvature="0" /><path
     d="m 22.641136,132.59869 c 21.574,13.632 81.923004,45.331 176.217004,44.788 l 109.877,-52.445 c 0,0 -5.922,0.032 -15.625,-0.253 l -93.894,42.831 -1.534,-0.2 c -53.687,-6.972 -92.027,-41.212 -116.105004,-71.542001 l -57.997,26.259001 c -5.431,2.463 -5.982,7.378 -0.939,10.562 z"
     id="path15"
     style="fill:none;fill-opacity:1;stroke:#000000;stroke-width:2;stroke-miterlimit:4;stroke-dasharray:none;stroke-opacity:1"
     inkscape:connector-curvature="0" /><g
     id="g17"
     transform="translate(1.4951359,-48.799314)"
     style="stroke:#000000;stroke-opacity:1;stroke-width:4.00000036;stroke-miterlimit:4;stroke-dasharray:none" /><g
     id="g19"
     transform="translate(1.4951359,-48.799314)"
     style="stroke:#000000;stroke-opacity:1;stroke-width:4.00000036;stroke-miterlimit:4;stroke-dasharray:none" /><g
     id="g21"
     transform="translate(1.4951359,-48.799314)"
     style="stroke:#000000;stroke-opacity:1;stroke-width:4.00000036;stroke-miterlimit:4;stroke-dasharray:none" /><g
     id="g23"
     transform="translate(1.4951359,-48.799314)"
     style="stroke:#000000;stroke-opacity:1;stroke-width:4.00000036;stroke-miterlimit:4;stroke-dasharray:none" /><g
     id="g25"
     transform="translate(1.4951359,-48.799314)"
     style="stroke:#000000;stroke-opacity:1;stroke-width:4.00000036;stroke-miterlimit:4;stroke-dasharray:none" /><g
     id="g27"
     transform="translate(1.4951359,-48.799314)"
     style="stroke:#000000;stroke-opacity:1;stroke-width:4.00000036;stroke-miterlimit:4;stroke-dasharray:none" /><g
     id="g29"
     transform="translate(1.4951359,-48.799314)"
     style="stroke:#000000;stroke-opacity:1;stroke-width:4.00000036;stroke-miterlimit:4;stroke-dasharray:none" /><g
     id="g31"
     transform="translate(1.4951359,-48.799314)"
     style="stroke:#000000;stroke-opacity:1;stroke-width:4.00000036;stroke-miterlimit:4;stroke-dasharray:none" /><g
     id="g33"
     transform="translate(1.4951359,-48.799314)"
     style="stroke:#000000;stroke-opacity:1;stroke-width:4.00000036;stroke-miterlimit:4;stroke-dasharray:none" /><g
     id="g35"
     transform="translate(1.4951359,-48.799314)"
     style="stroke:#000000;stroke-opacity:1;stroke-width:4.00000036;stroke-miterlimit:4;stroke-dasharray:none" /><g
     id="g37"
     transform="translate(1.4951359,-48.799314)"
     style="stroke:#000000;stroke-opacity:1;stroke-width:4.00000036;stroke-miterlimit:4;stroke-dasharray:none" /><g
     id="g39"
     transform="translate(1.4951359,-48.799314)"
     style="stroke:#000000;stroke-opacity:1;stroke-width:4.00000036;stroke-miterlimit:4;stroke-dasharray:none" /><g
     id="g41"
     transform="translate(1.4951359,-48.799314)"
     style="stroke:#000000;stroke-opacity:1;stroke-width:4.00000036;stroke-miterlimit:4;stroke-dasharray:none" /><g
     id="g43"
     transform="translate(1.4951359,-48.799314)"
     style="stroke:#000000;stroke-opacity:1;stroke-width:4.00000036;stroke-miterlimit:4;stroke-dasharray:none" /><g
     id="g45"
     transform="translate(1.4951359,-48.799314)"
     style="stroke:#000000;stroke-opacity:1;stroke-width:4.00000036;stroke-miterlimit:4;stroke-dasharray:none" /></svg>