<?xml version="1.0" encoding="UTF-8" standalone="no"?>
<svg
   xmlns:dc="http://purl.org/dc/elements/1.1/"
   xmlns:cc="http://creativecommons.org/ns#"
   xmlns:rdf="http://www.w3.org/1999/02/22-rdf-syntax-ns#"
   xmlns:svg="http://www.w3.org/2000/svg"
   xmlns="http://www.w3.org/2000/svg"
   xmlns:sodipodi="http://sodipodi.sourceforge.net/DTD/sodipodi-0.dtd"
   xmlns:inkscape="http://www.inkscape.org/namespaces/inkscape"
   version="1.1"
   viewBox="0 0 16.958523 17.015193"
   enable-background="new 0 0 24 24"
   width="361.78183"
   height="362.99078"
   id="svg2"
   inkscape:version="0.92.3 (2405546, 2018-03-11)"
   sodipodi:docname="adminMenu.svg">
  <metadata
     id="metadata16">
    <rdf:RDF>
      <cc:Work
         rdf:about="">
        <dc:format>image/svg+xml</dc:format>
        <dc:type
           rdf:resource="http://purl.org/dc/dcmitype/StillImage" />
        <dc:title />
      </cc:Work>
    </rdf:RDF>
  </metadata>
  <defs
     id="defs14" />
  <sodipodi:namedview
     pagecolor="#ffffff"
     bordercolor="#666666"
     borderopacity="1"
     objecttolerance="10"
     gridtolerance="10"
     guidetolerance="10"
     inkscape:pageopacity="0"
     inkscape:pageshadow="2"
     inkscape:window-width="1280"
     inkscape:window-height="743"
     id="namedview12"
     showgrid="false"
     inkscape:zoom="0.921875"
     inkscape:cx="-17.317696"
     inkscape:cy="217.61737"
     inkscape:window-x="0"
     inkscape:window-y="0"
     inkscape:window-maximized="1"
     inkscape:current-layer="svg2"
     fit-margin-top="0"
     fit-margin-left="0"
     fit-margin-right="0"
     fit-margin-bottom="0" />
  <path
     inkscape:connector-curvature="0"
     style="fill:#008080;fill-opacity:1;stroke:#000000;stroke-width:0.18750002;stroke-miterlimit:4;stroke-dasharray:none;stroke-opacity:1"
     id="path6"
     d="m 16.782672,0.9467394 c 0,-0.46253375 -0.27678,-0.77088959 -0.691951,-0.77088959 l -15.22291958,0 c -0.41517054,0 -0.6919509,0.30835584 -0.6919509,0.77088959 l 0,1.5417793 c 0,0.4625337 0.27678036,0.7708895 0.6919509,0.7708895 l 15.22291958,0 c 0.415171,0 0.691951,-0.3083558 0.691951,-0.7708895 l 0,-1.5417793 z" />
  <path
     d="m 16.782672,14.63424 c 0,-0.462534 -0.27678,-0.770889 -0.691951,-0.770889 l -15.22291958,0 c -0.41517054,0 -0.6919509,0.308355 -0.6919509,0.770889 l 0,1.541779 c 0,0.462534 0.27678036,0.77089 0.6919509,0.77089 l 15.22291958,0 c 0.415171,0 0.691951,-0.308356 0.691951,-0.77089 l 0,-1.541779 z"
     id="path4150"
     style="fill:#008080;fill-opacity:1;stroke:#000000;stroke-width:0.18750002;stroke-miterlimit:4;stroke-dasharray:none;stroke-opacity:1"
     inkscape:connector-curvature="0" />
  <path
     inkscape:connector-curvature="0"
     style="fill:#008080;fill-opacity:1;stroke:#000000;stroke-width:0.18750002;stroke-miterlimit:4;stroke-dasharray:none;stroke-opacity:1"
     id="path4152"
     d="m 16.782672,7.7904888 c 0,-0.462534 -0.27678,-0.770889 -0.691951,-0.770889 l -15.22291958,0 c -0.41517054,0 -0.6919509,0.308355 -0.6919509,0.770889 l 0,1.541779 c 0,0.462534 0.27678036,0.7708892 0.6919509,0.7708892 l 15.22291958,0 c 0.415171,0 0.691951,-0.3083552 0.691951,-0.7708892 l 0,-1.541779 z" />
</svg>
