<?xml version="1.0" encoding="UTF-8" standalone="no"?>
<!-- Generator: Adobe Illustrator 16.0.0, SVG Export Plug-In . SVG Version: 6.00 Build 0)  -->

<svg
   xmlns:dc="http://purl.org/dc/elements/1.1/"
   xmlns:cc="http://creativecommons.org/ns#"
   xmlns:rdf="http://www.w3.org/1999/02/22-rdf-syntax-ns#"
   xmlns:svg="http://www.w3.org/2000/svg"
   xmlns="http://www.w3.org/2000/svg"
   xmlns:sodipodi="http://sodipodi.sourceforge.net/DTD/sodipodi-0.dtd"
   xmlns:inkscape="http://www.inkscape.org/namespaces/inkscape"
   version="1.1"
   id="Capa_1"
   x="0px"
   y="0px"
   width="280.95566"
   height="196.64633"
   viewBox="0 0 280.95565 196.64634"
   xml:space="preserve"
   inkscape:version="0.92.3 (2405546, 2018-03-11)"
   sodipodi:docname="adminPages.svg"><metadata
     id="metadata51"><rdf:RDF><cc:Work
         rdf:about=""><dc:format>image/svg+xml</dc:format><dc:type
           rdf:resource="http://purl.org/dc/dcmitype/StillImage" /><dc:title></dc:title></cc:Work></rdf:RDF></metadata><defs
     id="defs49" /><sodipodi:namedview
     pagecolor="#ffffff"
     bordercolor="#666666"
     borderopacity="1"
     objecttolerance="10"
     gridtolerance="10"
     guidetolerance="10"
     inkscape:pageopacity="0"
     inkscape:pageshadow="2"
     inkscape:window-width="1280"
     inkscape:window-height="743"
     id="namedview47"
     showgrid="false"
     inkscape:zoom="1.0563754"
     inkscape:cx="1.5925621"
     inkscape:cy="137.11605"
     inkscape:window-x="0"
     inkscape:window-y="0"
     inkscape:window-maximized="1"
     inkscape:current-layer="Capa_1"
     fit-margin-top="0"
     fit-margin-left="0"
     fit-margin-right="0"
     fit-margin-bottom="0" /><path
     d="m 176.14856,154.82556 c 0.20445,0.031 0.41066,0.047 0.61599,0.047 0.68503,0 1.36209,-0.168 1.98782,-0.49 l 98.46494,-50.746 c 2.04003,-1.047 3.15431,-3.552 2.6932,-6.033001 -0.46642,-2.473001 -2.38963,-4.253001 -4.62968,-4.282001 -0.80274,-0.011 -80.5286,-1.928 -115.90655,-81.815003 C 156.03323,3.9675552 147.80938,-0.53544479 140.70245,1.3915552 L 58.515274,23.765555 c -3.966778,1.081 -7.126393,3.937 -8.664604,7.831 -1.505463,3.807 -1.294822,8.234 0.57351,12.149 14.275798,29.953003 55.10919,100.723005 125.72438,111.080005 z"
     id="path7"
     style="fill:#008080;fill-opacity:1;stroke:#000000;stroke-width:1.88153803;stroke-miterlimit:4;stroke-dasharray:none;stroke-opacity:1"
     inkscape:connector-curvature="0"
     sodipodi:nodetypes="cscccccccccc" /><path
     d="m 275.23392,145.50256 h -25.60527 l -73.47124,39.624 -3.2021,0.016 c -44.4249,0 -80.206439,-8.88 -106.956969,-19.311 l -65.60848612,29.874 H 174.45458 Z"
     id="path13"
     style="fill:none;fill-opacity:1;stroke:#000000;stroke-width:1.88153803;stroke-miterlimit:4;stroke-dasharray:none;stroke-opacity:1"
     inkscape:connector-curvature="0" /><path
     d="m 19.105045,129.51756 c 19.09399,13.632 72.505656,45.331 155.960215,44.788 l 97.24624,-52.445 c 0,0 -5.24124,0.032 -13.82885,-0.253 l -83.10054,42.831 -1.35766,-0.2 c -47.51549,-6.972 -81.448163,-41.212 -102.758313,-71.542002 L 19.936104,118.95556 c -4.806687,2.463 -5.294348,7.378 -0.831059,10.562 z"
     id="path15"
     style="fill:none;fill-opacity:1;stroke:#000000;stroke-width:1.88153803;stroke-miterlimit:4;stroke-dasharray:none;stroke-opacity:1"
     inkscape:connector-curvature="0" /><g
     id="g17"
     transform="matrix(0.88504635,0,0,1,0.38985488,-51.880445)"
     style="stroke:#000000;stroke-width:4.00000048;stroke-miterlimit:4;stroke-dasharray:none;stroke-opacity:1" /><g
     id="g19"
     transform="matrix(0.88504635,0,0,1,0.38985488,-51.880445)"
     style="stroke:#000000;stroke-width:4.00000048;stroke-miterlimit:4;stroke-dasharray:none;stroke-opacity:1" /><g
     id="g21"
     transform="matrix(0.88504635,0,0,1,0.38985488,-51.880445)"
     style="stroke:#000000;stroke-width:4.00000048;stroke-miterlimit:4;stroke-dasharray:none;stroke-opacity:1" /><g
     id="g23"
     transform="matrix(0.88504635,0,0,1,0.38985488,-51.880445)"
     style="stroke:#000000;stroke-width:4.00000048;stroke-miterlimit:4;stroke-dasharray:none;stroke-opacity:1" /><g
     id="g25"
     transform="matrix(0.88504635,0,0,1,0.38985488,-51.880445)"
     style="stroke:#000000;stroke-width:4.00000048;stroke-miterlimit:4;stroke-dasharray:none;stroke-opacity:1" /><g
     id="g27"
     transform="matrix(0.88504635,0,0,1,0.38985488,-51.880445)"
     style="stroke:#000000;stroke-width:4.00000048;stroke-miterlimit:4;stroke-dasharray:none;stroke-opacity:1" /><g
     id="g29"
     transform="matrix(0.88504635,0,0,1,0.38985488,-51.880445)"
     style="stroke:#000000;stroke-width:4.00000048;stroke-miterlimit:4;stroke-dasharray:none;stroke-opacity:1" /><g
     id="g31"
     transform="matrix(0.88504635,0,0,1,0.38985488,-51.880445)"
     style="stroke:#000000;stroke-width:4.00000048;stroke-miterlimit:4;stroke-dasharray:none;stroke-opacity:1" /><g
     id="g33"
     transform="matrix(0.88504635,0,0,1,0.38985488,-51.880445)"
     style="stroke:#000000;stroke-width:4.00000048;stroke-miterlimit:4;stroke-dasharray:none;stroke-opacity:1" /><g
     id="g35"
     transform="matrix(0.88504635,0,0,1,0.38985488,-51.880445)"
     style="stroke:#000000;stroke-width:4.00000048;stroke-miterlimit:4;stroke-dasharray:none;stroke-opacity:1" /><g
     id="g37"
     transform="matrix(0.88504635,0,0,1,0.38985488,-51.880445)"
     style="stroke:#000000;stroke-width:4.00000048;stroke-miterlimit:4;stroke-dasharray:none;stroke-opacity:1" /><g
     id="g39"
     transform="matrix(0.88504635,0,0,1,0.38985488,-51.880445)"
     style="stroke:#000000;stroke-width:4.00000048;stroke-miterlimit:4;stroke-dasharray:none;stroke-opacity:1" /><g
     id="g41"
     transform="matrix(0.88504635,0,0,1,0.38985488,-51.880445)"
     style="stroke:#000000;stroke-width:4.00000048;stroke-miterlimit:4;stroke-dasharray:none;stroke-opacity:1" /><g
     id="g43"
     transform="matrix(0.88504635,0,0,1,0.38985488,-51.880445)"
     style="stroke:#000000;stroke-width:4.00000048;stroke-miterlimit:4;stroke-dasharray:none;stroke-opacity:1" /><g
     id="g45"
     transform="matrix(0.88504635,0,0,1,0.38985488,-51.880445)"
     style="stroke:#000000;stroke-width:4.00000048;stroke-miterlimit:4;stroke-dasharray:none;stroke-opacity:1" /></svg>