<?xml version="1.0" encoding="UTF-8" standalone="no"?>
<!-- Generator: Adobe Illustrator 18.0.0, SVG Export Plug-In . SVG Version: 6.00 Build 0)  -->

<svg
   xmlns:dc="http://purl.org/dc/elements/1.1/"
   xmlns:cc="http://creativecommons.org/ns#"
   xmlns:rdf="http://www.w3.org/1999/02/22-rdf-syntax-ns#"
   xmlns:svg="http://www.w3.org/2000/svg"
   xmlns="http://www.w3.org/2000/svg"
   xmlns:sodipodi="http://sodipodi.sourceforge.net/DTD/sodipodi-0.dtd"
   xmlns:inkscape="http://www.inkscape.org/namespaces/inkscape"
   version="1.1"
   id="Capa_1"
   x="0px"
   y="0px"
   viewBox="0 0 116.196 116.196"
   xml:space="preserve"
   inkscape:version="0.92.3 (2405546, 2018-03-11)"
   sodipodi:docname="adminNews.svg"
   width="116.196"
   height="116.196"><metadata
     id="metadata44"><rdf:RDF><cc:Work
         rdf:about=""><dc:format>image/svg+xml</dc:format><dc:type
           rdf:resource="http://purl.org/dc/dcmitype/StillImage" /><dc:title /></cc:Work></rdf:RDF></metadata><defs
     id="defs42" /><sodipodi:namedview
     pagecolor="#ffffff"
     bordercolor="#666666"
     borderopacity="1"
     objecttolerance="10"
     gridtolerance="10"
     guidetolerance="10"
     inkscape:pageopacity="0"
     inkscape:pageshadow="2"
     inkscape:window-width="1280"
     inkscape:window-height="743"
     id="namedview40"
     showgrid="false"
     inkscape:zoom="2.1034618"
     inkscape:cx="-172.65458"
     inkscape:cy="58.098"
     inkscape:window-x="0"
     inkscape:window-y="0"
     inkscape:window-maximized="1"
     inkscape:current-layer="Capa_1"
     fit-margin-top="0"
     fit-margin-left="0"
     fit-margin-right="0"
     fit-margin-bottom="0" /><circle
     id="XMLID_11_"
     style="fill:#008080;fill-opacity:1;stroke:#000000;stroke-width:2;stroke-miterlimit:4;stroke-dasharray:none;stroke-opacity:1"
     cx="58.098"
     cy="58.098"
     r="56.098" /><path
     inkscape:connector-curvature="0"
     id="path8"
     d="m 55.979,82.702 4.403,0 c 0,0 1.33,-0.146 2.009,-0.878 0.625,-0.672 0.605,-1.934 0.605,-1.934 0,0 -0.086,-5.908 2.656,-6.778 2.703,-0.857 6.174,5.71 9.853,8.235 2.782,1.911 4.896,1.492 4.896,1.492 l 9.837,-0.137 c 0,0 5.146,-0.317 2.706,-4.363 -0.2,-0.331 -1.421,-2.993 -7.314,-8.463 -6.168,-5.725 -5.342,-4.799 2.088,-14.702 4.525,-6.031 6.334,-9.713 5.769,-11.29 -0.539,-1.502 -3.867,-1.105 -3.867,-1.105 l -11.076,0.069 c 0,0 -0.821,-0.112 -1.43,0.252 -0.595,0.357 -0.978,1.189 -0.978,1.189 0,0 -1.753,4.667 -4.091,8.636 -4.932,8.375 -6.904,8.817 -7.71,8.297 -1.875,-1.212 -1.407,-4.869 -1.407,-7.467 0,-8.116 1.231,-11.5 -2.397,-12.376 -1.204,-0.291 -2.09,-0.483 -5.169,-0.514 -3.952,-0.041 -7.297,0.012 -9.191,0.94 -1.26,0.617 -2.232,1.992 -1.64,2.071 0.732,0.098 2.39,0.447 3.269,1.644 1.135,1.544 1.095,5.012 1.095,5.012 0,0 0.652,9.554 -1.523,10.741 -1.493,0.814 -3.541,-0.848 -7.938,-8.446 -2.253,-3.892 -3.954,-8.194 -3.954,-8.194 0,0 -0.328,-0.804 -0.913,-1.234 -0.71,-0.521 -1.702,-0.687 -1.702,-0.687 L 22.34,42.781 c 0,0 -1.58,0.044 -2.16,0.731 -0.516,0.611 -0.041,1.875 -0.041,1.875 0,0 8.24,19.278 17.57,28.993 8.555,8.907 18.27,8.322 18.27,8.322 l 0,0 z"
     style="clip-rule:evenodd;fill:#ffffff;fill-rule:evenodd" /><g
     id="g10"
     transform="translate(2,2)" /><g
     id="g12"
     transform="translate(2,2)" /><g
     id="g14"
     transform="translate(2,2)" /><g
     id="g16"
     transform="translate(2,2)" /><g
     id="g18"
     transform="translate(2,2)" /><g
     id="g20"
     transform="translate(2,2)" /><g
     id="g22"
     transform="translate(2,2)" /><g
     id="g24"
     transform="translate(2,2)" /><g
     id="g26"
     transform="translate(2,2)" /><g
     id="g28"
     transform="translate(2,2)" /><g
     id="g30"
     transform="translate(2,2)" /><g
     id="g32"
     transform="translate(2,2)" /><g
     id="g34"
     transform="translate(2,2)" /><g
     id="g36"
     transform="translate(2,2)" /><g
     id="g38"
     transform="translate(2,2)" /></svg>