<?xml version="1.0" encoding="UTF-8" standalone="no"?>
<svg
   xmlns:dc="http://purl.org/dc/elements/1.1/"
   xmlns:cc="http://creativecommons.org/ns#"
   xmlns:rdf="http://www.w3.org/1999/02/22-rdf-syntax-ns#"
   xmlns:svg="http://www.w3.org/2000/svg"
   xmlns="http://www.w3.org/2000/svg"
   xmlns:sodipodi="http://sodipodi.sourceforge.net/DTD/sodipodi-0.dtd"
   xmlns:inkscape="http://www.inkscape.org/namespaces/inkscape"
   height="512pt"
   viewBox="0 0 512 512"
   width="512pt"
   version="1.1"
   id="svg18"
   sodipodi:docname="orders.svg"
   inkscape:version="0.92.3 (2405546, 2018-03-11)">
  <metadata
     id="metadata24">
    <rdf:RDF>
      <cc:Work
         rdf:about="">
        <dc:format>image/svg+xml</dc:format>
        <dc:type
           rdf:resource="http://purl.org/dc/dcmitype/StillImage" />
      </cc:Work>
    </rdf:RDF>
  </metadata>
  <defs
     id="defs22" />
  <sodipodi:namedview
     pagecolor="#ffffff"
     bordercolor="#666666"
     borderopacity="1"
     objecttolerance="10"
     gridtolerance="10"
     guidetolerance="10"
     inkscape:pageopacity="0"
     inkscape:pageshadow="2"
     inkscape:window-width="1280"
     inkscape:window-height="743"
     id="namedview20"
     showgrid="false"
     inkscape:zoom="0.34570313"
     inkscape:cx="-62.19209"
     inkscape:cy="341.33333"
     inkscape:window-x="0"
     inkscape:window-y="0"
     inkscape:window-maximized="1"
     inkscape:current-layer="svg18" />
  <path
     d="m106.980469 190.628906-12.683594-15.164062-23.015625 19.246094 32.601562 38.976562 54.214844-48.585938-20.019531-22.34375zm0 0"
     id="path2"
     style="fill:#008080;fill-opacity:1" />
  <path
     d="m180.667969 187h115.976562v30h-115.976562zm0 0"
     id="path4" />
  <path
     d="m106.980469 276.886719-12.683594-15.164063-23.015625 19.246094 32.601562 38.976562 54.214844-48.585937-20.019531-22.339844zm0 0"
     id="path6"
     style="fill:#008080;fill-opacity:1" />
  <path
     d="m180.667969 273.257812h115.976562v30h-115.976562zm0 0"
     id="path8" />
  <path
     d="m106.980469 363.144531-12.683594-15.164062-23.015625 19.246093 32.601562 38.976563 54.214844-48.585937-20.019531-22.339844zm0 0"
     id="path10"
     style="fill:#008080;fill-opacity:1" />
  <path
     d="m180.667969 359.519531h115.976562v30h-115.976562zm0 0"
     id="path12" />
  <path
     d="m302.546875 0h-30v30.546875h-38.695313v-30.546875h-30v30.546875h-38.703124v-30.546875h-30v30.546875h-38.695313v-30.546875h-30v30.546875h-66.453125v481.453125h369v-481.453125h-66.453125zm36.453125 60.546875v421.453125h-309v-421.453125h36.453125v30.542969h30v-30.542969h38.695313v30.542969h30v-30.542969h38.699218v30.542969h30v-30.542969h38.699219v30.542969h30v-30.542969zm0 0"
     id="path14"
     style="fill:none;stroke:#000000;stroke-opacity:1;stroke-width:2.99999991;stroke-miterlimit:4;stroke-dasharray:none" />
  <path
     d="m404.4375 26.480469v412.726562l44.925781 72.792969h17.707031l44.929688-72.796875v-412.722656zm77.5625 30v52.109375h-47.5625v-52.109375zm-47.5625 82.109375h47.5625v244.425781h-47.5625zm23.78125 330.636718-23.78125-38.53125v-17.679687h47.5625v17.675781zm0 0"
     id="path16"
     style="stroke:none;stroke-opacity:1;fill:#008080;stroke-width:2.99999991;stroke-miterlimit:4;stroke-dasharray:none;fill-opacity:1" />
</svg>
