<?xml version="1.0" encoding="UTF-8" standalone="no"?>
<!-- Generator: Adobe Illustrator 19.0.0, SVG Export Plug-In . SVG Version: 6.00 Build 0)  -->

<svg
   xmlns:dc="http://purl.org/dc/elements/1.1/"
   xmlns:cc="http://creativecommons.org/ns#"
   xmlns:rdf="http://www.w3.org/1999/02/22-rdf-syntax-ns#"
   xmlns:svg="http://www.w3.org/2000/svg"
   xmlns="http://www.w3.org/2000/svg"
   xmlns:sodipodi="http://sodipodi.sourceforge.net/DTD/sodipodi-0.dtd"
   xmlns:inkscape="http://www.inkscape.org/namespaces/inkscape"
   version="1.1"
   id="Layer_1"
   x="0px"
   y="0px"
   viewBox="0 0 512 512"
   style="enable-background:new 0 0 512 512;"
   xml:space="preserve"
   sodipodi:docname="profile.svg"
   inkscape:version="0.92.3 (2405546, 2018-03-11)"><metadata
   id="metadata43"><rdf:RDF><cc:Work
       rdf:about=""><dc:format>image/svg+xml</dc:format><dc:type
         rdf:resource="http://purl.org/dc/dcmitype/StillImage" /></cc:Work></rdf:RDF></metadata><defs
   id="defs41">
	

		
	</defs><sodipodi:namedview
   pagecolor="#ffffff"
   bordercolor="#666666"
   borderopacity="1"
   objecttolerance="10"
   gridtolerance="10"
   guidetolerance="10"
   inkscape:pageopacity="0"
   inkscape:pageshadow="2"
   inkscape:window-width="1280"
   inkscape:window-height="743"
   id="namedview39"
   showgrid="false"
   inkscape:zoom="1.3037281"
   inkscape:cx="150.74479"
   inkscape:cy="157.90873"
   inkscape:window-x="0"
   inkscape:window-y="0"
   inkscape:window-maximized="1"
   inkscape:current-layer="Layer_1" />
<path
   style="stroke:#000000;stroke-opacity:1;fill:none;fill-opacity:1;stroke-width:4;stroke-miterlimit:4;stroke-dasharray:none"
   d="m 374.45,332.463 c -0.407,-0.044 -59.344,1.695 -68.107,-61.463 9.737,-6.794 18.711,-15.614 26.617,-26.316 15.38,-20.82 25.29,-46.938 28.82,-75.189 1.213,-1.097 2.217,-2.462 2.893,-4.071 6.387,-15.215 9.626,-31.461 9.626,-48.289 C 374.299,52.547 325.578,0 265.688,0 c -15.663,0 -30.859,3.608 -45.211,10.733 -5.475,0.418 -10.84,1.381 -15.985,2.867 -24.597,7.107 -44.613,25.344 -56.362,51.354 -11.406,25.254 -13.654,54.983 -6.328,83.712 1.548,6.069 3.516,12.033 5.85,17.731 0.632,1.541 1.574,2.856 2.705,3.938 5.718,44.095 26.699,80.63 55.307,100.577 -8.79,63.265 -67.706,61.509 -68.112,61.553 -42.382,1.438 -76.425,36.341 -76.425,79.067 v 88.941 c 0,6.367 5.161,11.528 11.528,11.528 h 101.231 164.227 101.233 c 6.366,0 11.529,-5.161 11.529,-11.528 V 411.532 C 450.874,368.804 416.834,333.9 374.45,332.463 Z"
   id="path861" /><path
   style="stroke:#000000;stroke-opacity:1;fill:none;fill-opacity:1;stroke-width:4;stroke-miterlimit:4;stroke-dasharray:none"
   d="m 210.893,35.751 c 4.207,-1.216 8.65,-1.937 13.206,-2.142 1.691,-0.076 3.344,-0.523 4.843,-1.311 11.671,-6.132 24.035,-9.241 36.747,-9.241 47.174,0 85.554,42.203 85.554,94.078 0,1.557 -0.044,3.106 -0.112,4.649 -9.15,-9.292 -21.863,-15.067 -35.902,-15.067 h -78.571 c -4.675,0 -9.112,-1.468 -12.833,-4.246 -3.177,-2.371 -5.633,-5.558 -7.1,-9.216 -2.272,-5.658 -7.874,-9.197 -13.972,-8.814 -6.12,0.39 -11.27,4.64 -12.816,10.579 -4.553,17.496 -13.632,33.612 -26.088,46.681 -11.59,-47.699 9.327,-95.053 47.044,-105.95 z"
   id="path859" /><path
   style="stroke:#000000;stroke-opacity:1;fill:none;fill-opacity:1;stroke-width:4;stroke-miterlimit:4;stroke-dasharray:none"
   d="m 200.863,235.14 c -15.001,-18.326 -24.825,-43.073 -27.939,-70.166 14.547,-12.965 26.047,-29.099 33.534,-46.995 1.136,1.048 2.329,2.039 3.575,2.97 7.736,5.773 16.942,8.826 26.626,8.826 h 78.571 c 11.117,0 20.699,6.668 24.975,16.211 -10e-4,0.082 -0.013,0.16 -0.013,0.242 0,65.078 -37.76,118.023 -84.174,118.023 -20.2,0.001 -39.789,-10.338 -55.155,-29.111 z"
   id="path857" /><path
   style="stroke:#000000;stroke-opacity:1;fill:#008080;fill-opacity:1;stroke-width:4;stroke-miterlimit:4;stroke-dasharray:none"
   d="m 227.352,282.233 c 9.139,3.307 18.752,5.076 28.666,5.076 9.835,0 19.444,-1.712 28.643,-5.015 4.221,21.991 16.448,41.158 33.527,54.353 l -60.535,86.208 c -0.395,0.563 -0.944,0.848 -1.632,0.848 -0.687,0 -1.236,-0.286 -1.63,-0.847 l -60.55,-86.228 c 17.08,-13.21 29.303,-32.391 33.511,-54.395 z"
   id="path855" /><path
   style="stroke:#000000;stroke-opacity:1;fill:#008080;fill-opacity:1;stroke-width:4;stroke-miterlimit:4;stroke-dasharray:none"
   d="M 427.817,488.943 H 338.113 173.886 84.183 V 411.53 c 0,-30.922 25.157,-56.079 56.079,-56.079 0.42,0 18.971,-0.451 33.629,-7.112 l 61.629,87.766 c 4.684,6.672 12.348,10.655 20.5,10.655 0,0 0,0 0.001,0 8.151,0 15.816,-3.983 20.5,-10.655 l 61.618,-87.752 c 16.717,7.099 33.18,7.099 33.6,7.099 30.922,0 56.078,25.157 56.078,56.079 z"
   id="path2" />
<g
   id="g8">
</g>
<g
   id="g10">
</g>
<g
   id="g12">
</g>
<g
   id="g14">
</g>
<g
   id="g16">
</g>
<g
   id="g18">
</g>
<g
   id="g20">
</g>
<g
   id="g22">
</g>
<g
   id="g24">
</g>
<g
   id="g26">
</g>
<g
   id="g28">
</g>
<g
   id="g30">
</g>
<g
   id="g32">
</g>
<g
   id="g34">
</g>
<g
   id="g36">
</g>
</svg>