<?xml version="1.0" encoding="UTF-8" standalone="no"?>
<!-- Generator: Adobe Illustrator 19.0.0, SVG Export Plug-In . SVG Version: 6.00 Build 0)  -->

<svg
   xmlns:dc="http://purl.org/dc/elements/1.1/"
   xmlns:cc="http://creativecommons.org/ns#"
   xmlns:rdf="http://www.w3.org/1999/02/22-rdf-syntax-ns#"
   xmlns:svg="http://www.w3.org/2000/svg"
   xmlns="http://www.w3.org/2000/svg"
   xmlns:sodipodi="http://sodipodi.sourceforge.net/DTD/sodipodi-0.dtd"
   xmlns:inkscape="http://www.inkscape.org/namespaces/inkscape"
   version="1.1"
   id="Capa_1"
   x="0px"
   y="0px"
   viewBox="0 0 61 33"
   xml:space="preserve"
   sodipodi:docname="switchLeft.svg"
   inkscape:version="0.92.3 (2405546, 2018-03-11)"
   width="61"
   height="33"><metadata
   id="metadata119"><rdf:RDF><cc:Work
       rdf:about=""><dc:format>image/svg+xml</dc:format><dc:type
         rdf:resource="http://purl.org/dc/dcmitype/StillImage" /><dc:title /></cc:Work></rdf:RDF></metadata><defs
   id="defs117">
	
	
	
	
	
	
	
	
	
	
	
	
	
	
	
	
	
	
	
	
	
	
	
	
	
	
	
	
	
	
	
	
	
	
	
	
	
	
	
	
</defs><sodipodi:namedview
   pagecolor="#ffffff"
   bordercolor="#666666"
   borderopacity="1"
   objecttolerance="10"
   gridtolerance="10"
   guidetolerance="10"
   inkscape:pageopacity="0"
   inkscape:pageshadow="2"
   inkscape:window-width="1280"
   inkscape:window-height="743"
   id="namedview115"
   showgrid="false"
   inkscape:zoom="5.5625733"
   inkscape:cx="0.11396571"
   inkscape:cy="2.0919968"
   inkscape:window-x="0"
   inkscape:window-y="0"
   inkscape:window-maximized="1"
   inkscape:current-layer="Capa_1"
   fit-margin-top="0"
   fit-margin-left="0"
   fit-margin-right="0"
   fit-margin-bottom="0" />
<path
   style="fill:none;stroke:#000000;stroke-width:0.51575607;stroke-miterlimit:4;stroke-dasharray:none;stroke-opacity:1"
   d="m 4.492,12.243931 h 24.016 28 c 2.201,0 3.992,0.476414 3.992,1.061889 v 6.38836 c 0,0.585475 -1.791,1.061889 -3.992,1.061889 h -28 -24.016 c -2.201,0 -3.992,-0.476414 -3.992,-1.061889 v -6.38836 c 0,-0.585475 1.791,-1.061889 3.992,-1.061889 z"
   id="path870"
   inkscape:connector-curvature="0" /><path
   style="fill:#008080;stroke:#000000;stroke-width:0.79763603;stroke-miterlimit:4;stroke-dasharray:none;stroke-opacity:1"
   d="m 5.5928749,28.508 c 0,1.098 0.5687835,1.992 1.2673566,1.992 H 22.139768 c 0.698574,0 1.267357,-0.894 1.267357,-1.992 V 4.492 c 0,-1.098 -0.568783,-1.992 -1.267357,-1.992 H 6.8602315 C 6.1616584,2.5 5.5928749,3.394 5.5928749,4.492 Z"
   id="path2"
   inkscape:connector-curvature="0" /><path
   inkscape:connector-curvature="0"
   style="fill:#ffffff;stroke:#000000;stroke-width:1;stroke-miterlimit:4;stroke-dasharray:none;stroke-opacity:1"
   id="path76"
   d="m 11.5,12.5 c 0.552,0 1,0.447 1,1 v 6 c 0,0.553 -0.448,1 -1,1 -0.552,0 -1,-0.447 -1,-1 v -6 c 0,-0.553 0.448,-1 1,-1 z" /><path
   inkscape:connector-curvature="0"
   style="fill:#ffffff;stroke:#000000;stroke-width:1;stroke-miterlimit:4;stroke-dasharray:none;stroke-opacity:1"
   id="path78"
   d="m 14.5,12.5 c 0.552,0 1,0.447 1,1 v 6 c 0,0.553 -0.448,1 -1,1 -0.552,0 -1,-0.447 -1,-1 v -6 c 0,-0.553 0.448,-1 1,-1 z" /><path
   inkscape:connector-curvature="0"
   style="fill:#ffffff;stroke:#000000;stroke-width:1;stroke-miterlimit:4;stroke-dasharray:none;stroke-opacity:1"
   id="path80"
   d="m 17.5,12.5 c 0.552,0 1,0.447 1,1 v 6 c 0,0.553 -0.448,1 -1,1 -0.552,0 -1,-0.447 -1,-1 v -6 c 0,-0.553 0.448,-1 1,-1 z" />
<g
   id="g84"
   transform="matrix(-1,0,0,1,60.5,-13.5)"
   style="fill:none">
</g>
<g
   id="g86"
   transform="matrix(-1,0,0,1,60.5,-13.5)"
   style="fill:none">
</g>
<g
   id="g88"
   transform="matrix(-1,0,0,1,60.5,-13.5)"
   style="fill:none">
</g>
<g
   id="g90"
   transform="matrix(-1,0,0,1,60.5,-13.5)"
   style="fill:none">
</g>
<g
   id="g92"
   transform="matrix(-1,0,0,1,60.5,-13.5)"
   style="fill:none">
</g>
<g
   id="g94"
   transform="matrix(-1,0,0,1,60.5,-13.5)"
   style="fill:none">
</g>
<g
   id="g96"
   transform="matrix(-1,0,0,1,60.5,-13.5)"
   style="fill:none">
</g>
<g
   id="g98"
   transform="matrix(-1,0,0,1,60.5,-13.5)"
   style="fill:none">
</g>
<g
   id="g100"
   transform="matrix(-1,0,0,1,60.5,-13.5)"
   style="fill:none">
</g>
<g
   id="g102"
   transform="matrix(-1,0,0,1,60.5,-13.5)"
   style="fill:none">
</g>
<g
   id="g104"
   transform="matrix(-1,0,0,1,60.5,-13.5)"
   style="fill:none">
</g>
<g
   id="g106"
   transform="matrix(-1,0,0,1,60.5,-13.5)"
   style="fill:none">
</g>
<g
   id="g108"
   transform="matrix(-1,0,0,1,60.5,-13.5)"
   style="fill:none">
</g>
<g
   id="g110"
   transform="matrix(-1,0,0,1,60.5,-13.5)"
   style="fill:none">
</g>
<g
   id="g112"
   transform="matrix(-1,0,0,1,60.5,-13.5)"
   style="fill:none">
</g>
</svg>