<?xml version="1.0" encoding="UTF-8" standalone="no"?>
<!-- Generator: Adobe Illustrator 19.0.0, SVG Export Plug-In . SVG Version: 6.00 Build 0)  -->

<svg
   xmlns:dc="http://purl.org/dc/elements/1.1/"
   xmlns:cc="http://creativecommons.org/ns#"
   xmlns:rdf="http://www.w3.org/1999/02/22-rdf-syntax-ns#"
   xmlns:svg="http://www.w3.org/2000/svg"
   xmlns="http://www.w3.org/2000/svg"
   xmlns:sodipodi="http://sodipodi.sourceforge.net/DTD/sodipodi-0.dtd"
   xmlns:inkscape="http://www.inkscape.org/namespaces/inkscape"
   version="1.1"
   id="Capa_1"
   x="0px"
   y="0px"
   viewBox="0 0 511.999 511.999"
   style="enable-background:new 0 0 511.999 511.999;"
   xml:space="preserve"
   inkscape:version="0.91 r13725"
   sodipodi:docname="doctor.svg"><metadata
     id="metadata49"><rdf:RDF><cc:Work
         rdf:about=""><dc:format>image/svg+xml</dc:format><dc:type
           rdf:resource="http://purl.org/dc/dcmitype/StillImage" /><dc:title></dc:title></cc:Work></rdf:RDF></metadata><defs
     id="defs47" /><sodipodi:namedview
     pagecolor="#a46565"
     bordercolor="#666666"
     borderopacity="1"
     objecttolerance="10"
     gridtolerance="10"
     guidetolerance="10"
     inkscape:pageopacity="0"
     inkscape:pageshadow="2"
     inkscape:window-width="1280"
     inkscape:window-height="733"
     id="namedview45"
     showgrid="false"
     inkscape:zoom="0.65186534"
     inkscape:cx="489.95625"
     inkscape:cy="279.60612"
     inkscape:window-x="0"
     inkscape:window-y="0"
     inkscape:window-maximized="1"
     inkscape:current-layer="Capa_1" /><path
     style="fill:#00ff00;fill-opacity:0.78431374;stroke:#ffffff;stroke-opacity:1;stroke-width:4;stroke-miterlimit:4;stroke-dasharray:none"
     d="m 179.68,35.668 c 3.58691,9.368881 7.5732,19.790599 10.799,28.22 3.753,9.807 13.33,16.396 23.831,16.396 l 85.33,0 c 10.5,0 20.077,-6.589 23.8965,-16.567 l 5.5855,-14.595 5.148,-13.453 c 1.957,-5.114 1.566,-10.799 -1.071,-15.597 -2.637,-4.797 -7.226,-8.174 -12.591,-9.263 L 277.7,2.095 c -13.753,-2.794 -27.698,-2.794 -41.451,0 l -42.907,8.712 c -5.365,1.089 -9.955,4.465 -12.592,9.264 -2.637,4.799 -3.028,10.483 -1.07,15.597"
     id="path4162" /><g
     id="g3"
     style="fill:#ffffff;fill-opacity:1;stroke:#ffffff;stroke-opacity:1;stroke-width:4;stroke-miterlimit:4;stroke-dasharray:none"><g
       id="g5"
       style="fill:#ffffff;fill-opacity:1;stroke:#ffffff;stroke-opacity:1;stroke-width:4;stroke-miterlimit:4;stroke-dasharray:none"><path
         d="M269.165,32.193h-5.69v-5.691c0-4.129-3.347-7.476-7.476-7.476s-7.476,3.347-7.476,7.476v5.691h-5.69    c-4.129,0-7.476,3.347-7.476,7.476c0,4.129,3.347,7.476,7.476,7.476h5.69v5.69c0,4.129,3.347,7.476,7.476,7.476    c4.129,0,7.476-3.347,7.476-7.476v-5.69h5.69c4.129,0,7.476-3.347,7.476-7.476C276.641,35.54,273.294,32.193,269.165,32.193z"
         id="path7"
         style="fill:#ffffff;stroke:#ffffff;stroke-opacity:1;stroke-width:4;stroke-miterlimit:4;stroke-dasharray:none;fill-opacity:1" /></g></g><g
     id="g15"
     style="stroke:#ffffff" /><g
     id="g17"
     style="stroke:#ffffff" /><g
     id="g19"
     style="stroke:#ffffff" /><g
     id="g21"
     style="stroke:#ffffff" /><g
     id="g23"
     style="stroke:#ffffff" /><g
     id="g25"
     style="stroke:#ffffff" /><g
     id="g27"
     style="stroke:#ffffff" /><g
     id="g29"
     style="stroke:#ffffff" /><g
     id="g31"
     style="stroke:#ffffff" /><g
     id="g33"
     style="stroke:#ffffff" /><g
     id="g35"
     style="stroke:#ffffff" /><g
     id="g37"
     style="stroke:#ffffff" /><g
     id="g39"
     style="stroke:#ffffff" /><g
     id="g41"
     style="stroke:#ffffff" /><g
     id="g43"
     style="stroke:#ffffff" /><path
     style="fill:#00ff00;fill-opacity:0.78431374;stroke:#ffffff;stroke-width:4;stroke-miterlimit:4;stroke-dasharray:none;stroke-opacity:1"
     d="m 73.637,361.026 c 1.409,-8.245 7.259,-14.869 15.267,-17.285 l 98.083,-29.595 c 0.642,-0.193 1.325,0.101 1.628,0.697 0,10e-4 0.002,0.003 0.002,0.004 l 46.829,92.518 c 1.232,2.435 2.849,4.582 4.755,6.382 4.194,3.962 9.792,6.249 15.796,6.249 3.821,0 7.477,-0.926 10.712,-2.621 4.159,-2.179 7.621,-5.628 9.84,-10.011 l 46.831,-92.521 c 0.302,-0.598 0.986,-0.895 1.629,-0.697 l 98.082,29.594 c 8.009,2.416 13.859,9.04 15.267,17.285 l 21.849,127.915 c 0.473,2.765 -0.759,4.721 -1.536,5.641 -0.777,0.92 -2.497,2.464 -5.302,2.464 l -46.314,0 -12.219,-71.532 c -0.695,-4.07 -4.555,-6.809 -8.628,-6.111 -4.07,0.695 -6.806,4.558 -6.111,8.628 l 11.789,69.014 -271.775,0 11.789,-69.014 c 0.695,-4.07 -2.041,-7.933 -6.111,-8.628 -4.068,-0.696 -7.933,2.04 -8.628,6.111 l -12.219,71.532 -46.315,0 c -2.805,0 -4.526,-1.544 -5.302,-2.464 -0.776,-0.92 -2.008,-2.877 -1.536,-5.641 z"
     id="path4198"
     inkscape:connector-curvature="0"
     sodipodi:nodetypes="cccccccscccccccssccccccccccsscc" /><path
     id="path4192"
     style="fill:none;fill-opacity:1;stroke:#ffffff;stroke-width:2;stroke-miterlimit:4;stroke-dasharray:none;stroke-opacity:1"
     d="M 323.5365,63.716999 C 332.35796,67.802494 338.166,77.528 342.582,86.755 c 1.285,2.683 3.96,4.25 6.749,4.25 1.082,0 2.181,-0.237 3.222,-0.735 3.725,-1.782 5.299,-6.247 3.516,-9.971 C 349.986,67.59 340.9404,54.81931 329.05421,49.189797"
     inkscape:connector-curvature="0"
     sodipodi:nodetypes="ccsscc" /><path
     style="fill:none;fill-opacity:1;stroke:#ffffff;stroke-width:2;stroke-miterlimit:4;stroke-dasharray:none;stroke-opacity:1"
     d="M 189.913,62.409 C 174.35,73.396 164.594,90.671 163.367,110.05 l -2.306,36.428 c 1.392,-0.394 2.836,-0.662 4.322,-0.781 l 0,-1.931 c 0,-0.041 10e-4,-0.082 10e-4,-0.123 0.49,-29.955 22.911,-46.731 36.082,-51.922 7.577,-2.987 13.139,-2.718 16.53,0.799 16.316,16.924 38.659,40.1 116.265,47.084 4.287,0.386 7.932,2.687 10.129,6.021 l 0.417,0 c 2.125,0 4.18,0.303 6.13,0.855 l -1.764,-27.871 c -0.261,-4.121 2.868,-7.673 6.989,-7.934 4.11,-0.258 7.672,2.869 7.933,6.99 l 2.982,47.106 c 0.167,1.103 0.254,2.23 0.254,3.378 l 0,0.63 2.662,42.061 c 0.843,13.308 -3.72,25.991 -12.846,35.713 -9.126,9.722 -21.496,15.076 -34.831,15.076 l -9.607,0 c -0.412,0.365 -0.813,0.716 -1.19,1.041 -0.252,0.217 -0.506,0.435 -0.759,0.653 l 0,24.484 c 0,4.915 2.542,10.223 6.028,13.327 3.728,-2.035 8.217,-2.603 12.543,-1.298 l 98.081,29.593 c 13.475,4.065 23.318,15.209 25.688,29.083 l 21.849,127.916 c 1.089,6.371 -0.678,12.86 -4.845,17.796 -4.169,4.94 -10.267,7.774 -16.731,7.774 l -394.738,0 -0.008,0 c -6.465,0 -12.563,-2.834 -16.731,-7.774 -4.168,-4.94 -5.934,-11.429 -4.846,-17.801 7.282855,-42.63797 14.565731,-85.27593 21.848,-127.914 2.371,-13.873 12.214,-25.018 25.688,-29.083 l 98.082,-29.594 c 4.324,-1.306 8.814,-0.736 12.542,1.299 3.486,-3.103 6.028,-8.412 6.028,-13.327 l 0,-24.484 c -0.253,-0.218 -0.507,-0.436 -0.759,-0.653 -0.377,-0.325 -0.778,-0.677 -1.19,-1.041 l -9.607,0 c -13.335,0 -25.705,-5.354 -34.831,-15.076 -9.126,-9.722 -13.689,-22.406 -12.846,-35.713 l 2.662,-42.061 0,-0.63 c 0,-1.047 0.096,-2.069 0.235,-3.078 l 3.543,-55.964 c 1.598,-25.251 14.91,-47.605 35.989,-61.015"
     id="path4196"
     inkscape:connector-curvature="0" /><path
     style="fill:#ffffff;fill-opacity:1;stroke:#ffffff;stroke-width:2;stroke-miterlimit:4;stroke-dasharray:none;stroke-opacity:1"
     d="m 355.071,211.785 c 0.578,9.143 -2.556,17.855 -8.826,24.534 -5.091,5.424 -11.652,8.869 -18.844,9.972 8.22,-10.176 16.291,-23.622 18.569,-38.973 3.1,-0.158 6.029,-0.959 8.676,-2.251 z"
     id="path4190"
     inkscape:connector-curvature="0" /><path
     style="fill:#ffffff;fill-opacity:1;stroke:#ffffff;stroke-width:2;stroke-miterlimit:4;stroke-dasharray:none;stroke-opacity:1"
     d="m 165.754,236.319 c -6.27,-6.679 -9.404,-15.392 -8.826,-24.534 l 0.425,-6.717 c 2.647,1.292 5.576,2.092 8.676,2.251 2.277,15.35 10.349,28.796 18.569,38.973 -7.192,-1.104 -13.753,-4.549 -18.844,-9.973 z"
     id="path4188"
     inkscape:connector-curvature="0" /><path
     style="fill:#ffffff;fill-opacity:1;stroke:#ffffff;stroke-width:2;stroke-miterlimit:4;stroke-dasharray:none;stroke-opacity:1"
     d="m 264.148,398.762 -0.938,1.853 c -0.133,0.263 -0.289,0.507 -0.444,0.749 -0.05,0.077 -0.09,0.163 -0.141,0.238 -0.094,0.137 -0.205,0.255 -0.306,0.385 -0.359,0.459 -0.749,0.887 -1.188,1.25 -0.092,0.076 -0.196,0.137 -0.291,0.209 -1.359,1.022 -3.024,1.601 -4.841,1.601 -3.11,0 -5.806,-1.657 -7.211,-4.431 l -31.048,-61.343 76.52,0 z"
     id="path4186"
     inkscape:connector-curvature="0" /><path
     style="fill:#ffffff;fill-opacity:1;stroke:#ffffff;stroke-width:2;stroke-miterlimit:4;stroke-dasharray:none;stroke-opacity:1"
     d="m 301.828,324.32 -91.657,0 -5.775,-11.41 c 7.045,-5.893 11.796,-15.514 11.796,-25.104 l 0,-12.9 c 9.787,6.294 22.034,11.176 39.725,11.374 l 0.083,0 0.083,0 c 17.691,-0.198 29.938,-5.08 39.725,-11.373 l 0,12.9 c 0,9.591 4.75,19.211 11.796,25.104 z"
     id="path4184"
     inkscape:connector-curvature="0" /><path
     style="fill:#ffffff;fill-opacity:1;stroke:#ffffff;stroke-width:2;stroke-miterlimit:4;stroke-dasharray:none;stroke-opacity:1"
     d="m 301.763,251.339 c -13.825,11.906 -24.484,19.731 -45.763,19.988 -21.278,-0.257 -31.937,-8.083 -45.763,-19.988 -18.354,-15.803 -29.524,-35.103 -29.879,-51.628 -0.087,-4.065 -3.408,-7.316 -7.474,-7.316 l -5.691,0 c -4.175,0 -7.571,-3.396 -7.571,-7.571 l 0,-16.675 c 0,-0.349 0.032,-0.689 0.078,-1.026 0.021,-0.114 0.037,-0.229 0.053,-0.344 0.647,-3.522 3.734,-6.201 7.441,-6.201 l 5.668,0 c 4.129,0 7.476,-3.347 7.476,-7.476 l 0,-9.271 c 0.448,-25.305 21.986,-37.13 28.807,-38.965 21.925,22.366 48.871,42.705 122.63,49.527 0.611,3.513 3.676,6.185 7.365,6.185 l 5.668,0 c 3.706,0 6.793,2.679 7.441,6.201 0.016,0.116 0.032,0.231 0.053,0.344 0.046,0.336 0.078,0.677 0.078,1.026 l 0,16.675 c 0,4.174 -3.396,7.571 -7.571,7.571 l -5.691,0 c -4.067,0 -7.387,3.25 -7.474,7.316 -0.357,16.524 -11.527,35.824 -29.881,51.628 z"
     id="path13"
     inkscape:connector-curvature="0" /></svg>