<?xml version="1.0" encoding="UTF-8" standalone="no"?>
<!-- Generator: Adobe Illustrator 19.0.0, SVG Export Plug-In . SVG Version: 6.00 Build 0)  -->

<svg
   xmlns:dc="http://purl.org/dc/elements/1.1/"
   xmlns:cc="http://creativecommons.org/ns#"
   xmlns:rdf="http://www.w3.org/1999/02/22-rdf-syntax-ns#"
   xmlns:svg="http://www.w3.org/2000/svg"
   xmlns="http://www.w3.org/2000/svg"
   xmlns:sodipodi="http://sodipodi.sourceforge.net/DTD/sodipodi-0.dtd"
   xmlns:inkscape="http://www.inkscape.org/namespaces/inkscape"
   version="1.1"
   id="Capa_1"
   x="0px"
   y="0px"
   viewBox="0 0 467.364 467.364"
   style="enable-background:new 0 0 467.364 467.364;"
   xml:space="preserve"
   inkscape:version="0.91 r13725"
   sodipodi:docname="callHover.svg"><metadata
     id="metadata51"><rdf:RDF><cc:Work
         rdf:about=""><dc:format>image/svg+xml</dc:format><dc:type
           rdf:resource="http://purl.org/dc/dcmitype/StillImage" /></cc:Work></rdf:RDF></metadata><defs
     id="defs49" /><sodipodi:namedview
     pagecolor="#ffffff"
     bordercolor="#666666"
     borderopacity="1"
     objecttolerance="10"
     gridtolerance="10"
     guidetolerance="10"
     inkscape:pageopacity="0"
     inkscape:pageshadow="2"
     inkscape:window-width="1280"
     inkscape:window-height="959"
     id="namedview47"
     showgrid="false"
     inkscape:zoom="1.0099194"
     inkscape:cx="-6.4361841"
     inkscape:cy="228.46767"
     inkscape:window-x="0"
     inkscape:window-y="0"
     inkscape:window-maximized="1"
     inkscape:current-layer="Capa_1" /><path
     inkscape:connector-curvature="0"
     id="path9"
     d="m 328.99,244.556 c -0.4,2.8 2,5.6 4.8,5.6 2.8,0.4 5.6,-2 5.6,-4.8 0,-1.2 0.4,-2.8 0.4,-4.4 0,-1.6 0,-3.2 0,-4.4 0,-29.2 -12,-56 -31.2,-75.2 -18.8,-19.6 -45.6,-31.2 -74.8,-31.2 -3.2,0 -6,0 -9.2,0.4 -3.2,0.4 -6,0.8 -9.2,1.2 -2.8,0.4 -4.8,3.2 -4.4,6 0.4,2.8 3.2,4.8 6,4.4 2.8,-0.4 5.6,-0.8 8.4,-1.2 2.8,-0.4 5.6,-0.4 8.4,-0.4 26.4,0 50.4,10.8 67.6,28 17.2,17.2 28,41.2 28,67.6 0,1.6 0,2.8 0,4 0,1.6 0,2.8 -0.4,4.4 z"
     style="fill:#000000;fill-opacity:1;stroke:none;stroke-opacity:1" /><path
     inkscape:connector-curvature="0"
     id="path11"
     d="m 463.79,349.355 c -1.6,-3.6 -4.8,-7.2 -9.6,-10 l -80,-42.8 c -26,-14 -30.8,-8.8 -50.4,13.2 -3.2,3.6 -7.2,8 -11.6,12.4 -1.2,1.2 -2.4,2.8 -4,4.4 -6.4,7.6 -16,18.8 -24.8,16.4 -12.8,-3.2 -30.8,-13.6 -48.8,-25.6 -23.2,-16 -46,-35.2 -56.4,-46.4 -5.6,-6 -22.4,-26.4 -34.4,-44.8 -6.8,-10.4 -12,-19.6 -12.4,-24.4 -0.4,-6.8 6.4,-13.2 14,-20.8 14.4,-14 31.2,-30 19.6,-60.4 0,-0.4 0,-0.4 -0.4,-0.8 l -34.8,-78.8 c -7.2,-15.6 -16.4,-24 -27.2,-26.8 -9.6,-2.4 -20,-0.4 -30.4,5.2 -9.6,5.2 -19.6,13.6 -28.8,23.6 -26.4,29.2 -47.2,74.4 -42.8,103.6 3.6,24.8 13.6,51.6 28.8,79.2 72.28227,111.73806 244.7205,292.63309 383.2,218.4 14.8,-8 31.6,-25.2 42.4,-43.6 5.2,-8.8 9.2,-18 11.2,-26.4 2,-9.2 1.6,-17.599 -2.4,-24.8 z"
     style="fill:#ffff00;fill-opacity:1;stroke:#000000;stroke-width:14;stroke-miterlimit:4;stroke-dasharray:none;stroke-opacity:1"
     sodipodi:nodetypes="ccccsccccccccccccccccccc" /><path
     inkscape:connector-curvature="0"
     id="path13"
     d="m 195.79,22.156 c 6.4,-1.2 12.4,-2 18.8,-2.4 6.4,-0.4 12.8,-0.8 18.8,-0.8 60,0 114.4,24.4 154,63.6 39.6,39.6 63.6,94 63.6,154 0,6.4 -0.4,12.4 -0.8,18.8 0.4,2.8 2.4,5.2 5.6,5.6 2.8,0.4 5.6,-2 5.6,-4.8 0.4,-6.4 0.8,-13.2 0.8,-19.6 0,-63.2 -25.6,-120.4 -66.8,-161.6 -41.2,-41.6 -98.4,-67.2 -161.6,-67.2 -6.8,0 -13.2,0.4 -20,0.8 -6.8,0.4 -13.2,1.6 -19.6,2.8 -2.8,0.4 -4.8,3.2 -4.4,6.4 0.4,2.8 3.2,4.8 6,4.4 z"
     style="fill:#000000;fill-opacity:1;stroke:none;stroke-opacity:1" /><path
     inkscape:connector-curvature="0"
     id="path15"
     d="m 394.59,255.756 c 2.8,0.4 5.6,-2 5.6,-4.8 0.4,-4.8 0.8,-9.6 0.8,-14.4 0,-46 -18.8,-88 -48.8,-118.4 -30.4,-30.4 -72.4,-49.2 -118.4,-49.2 -4.8,0 -9.6,0.4 -14.4,0.8 -4.8,0.4 -9.6,1.2 -14.4,2 -2.8,0.4 -4.8,3.2 -4.4,6 0.4,2.8 3.2,4.8 6,4.4 4.4,-0.8 8.8,-1.2 13.6,-1.6 4.4,-0.4 9.2,-0.4 13.6,-0.4 43.2,0 82.4,17.6 110.8,46 28.4,28.4 46,67.6 46,110.8 0,4.4 0,8.8 -0.4,13.6 -0.8,2.4 1.6,4.799 4.4,5.2 z"
     style="fill:#000000;fill-opacity:1;stroke:none;stroke-opacity:1" /><g
     id="g17" /><g
     id="g19" /><g
     id="g21" /><g
     id="g23" /><g
     id="g25" /><g
     id="g27" /><g
     id="g29" /><g
     id="g31" /><g
     id="g33" /><g
     id="g35" /><g
     id="g37" /><g
     id="g39" /><g
     id="g41" /><g
     id="g43" /><g
     id="g45" /></svg>