<?xml version="1.0" encoding="UTF-8" standalone="no"?>
<!-- Generator: Adobe Illustrator 16.0.0, SVG Export Plug-In . SVG Version: 6.00 Build 0)  -->

<svg
   xmlns:dc="http://purl.org/dc/elements/1.1/"
   xmlns:cc="http://creativecommons.org/ns#"
   xmlns:rdf="http://www.w3.org/1999/02/22-rdf-syntax-ns#"
   xmlns:svg="http://www.w3.org/2000/svg"
   xmlns="http://www.w3.org/2000/svg"
   xmlns:sodipodi="http://sodipodi.sourceforge.net/DTD/sodipodi-0.dtd"
   xmlns:inkscape="http://www.inkscape.org/namespaces/inkscape"
   version="1.1"
   id="Capa_1"
   x="0px"
   y="0px"
   width="577.029px"
   height="577.029px"
   viewBox="0 0 577.029 577.029"
   style="enable-background:new 0 0 577.029 577.029;"
   xml:space="preserve"
   inkscape:version="0.91 r13725"
   sodipodi:docname="eyeHover.svg"><metadata
     id="metadata41"><rdf:RDF><cc:Work
         rdf:about=""><dc:format>image/svg+xml</dc:format><dc:type
           rdf:resource="http://purl.org/dc/dcmitype/StillImage" /></cc:Work></rdf:RDF></metadata><defs
     id="defs39" /><sodipodi:namedview
     pagecolor="#ffffff"
     bordercolor="#666666"
     borderopacity="1"
     objecttolerance="10"
     gridtolerance="10"
     guidetolerance="10"
     inkscape:pageopacity="0"
     inkscape:pageshadow="2"
     inkscape:window-width="1280"
     inkscape:window-height="959"
     id="namedview37"
     showgrid="false"
     inkscape:zoom="0.40899158"
     inkscape:cx="-460.88968"
     inkscape:cy="288.5145"
     inkscape:window-x="0"
     inkscape:window-y="0"
     inkscape:window-maximized="1"
     inkscape:current-layer="Capa_1" /><path
     inkscape:connector-curvature="0"
     style="fill:#ffff00;fill-opacity:1;stroke:#000000;stroke-width:8;stroke-miterlimit:4;stroke-dasharray:none;stroke-opacity:1"
     id="path5"
     d="m 288.514,148.629 c 73.746,0 136.162,33.616 175.539,61.821 46.652,33.415 70.66,65.737 76.885,78.065 -6.232,12.327 -30.232,44.649 -76.885,78.065 -39.377,28.204 -101.793,61.82 -175.539,61.82 -73.746,0 -136.161,-33.616 -175.539,-61.82 -46.661,-33.416 -70.66,-65.738 -76.894,-78.065 6.234,-12.328 30.233,-44.65 76.885,-78.065 39.387,-28.205 101.802,-61.821 175.548,-61.821 m 0,-34.972 C 129.176,113.657 0,253.543 0,288.515 c 0,34.972 129.176,174.857 288.514,174.857 159.339,0 288.515,-139.886 288.515,-174.857 0,-34.971 -129.175,-174.858 -288.515,-174.858 l 0,0 z m 0,69.944 c -57.939,0 -104.914,46.975 -104.914,104.914 0,57.938 46.975,104.914 104.914,104.914 57.939,0 104.914,-46.976 104.914,-104.914 0,-57.939 -46.975,-104.914 -104.914,-104.914 z m -28.248,104.914 c -24.515,0 -44.388,-19.873 -44.388,-44.388 0,-24.515 19.873,-44.387 44.388,-44.387 24.515,0 44.388,19.873 44.388,44.387 0,24.515 -19.873,44.388 -44.388,44.388 z" /><g
     id="g7" /><g
     id="g9" /><g
     id="g11" /><g
     id="g13" /><g
     id="g15" /><g
     id="g17" /><g
     id="g19" /><g
     id="g21" /><g
     id="g23" /><g
     id="g25" /><g
     id="g27" /><g
     id="g29" /><g
     id="g31" /><g
     id="g33" /><g
     id="g35" /></svg>