<?xml version="1.0" encoding="UTF-8" standalone="no"?>
<!-- Generator: Adobe Illustrator 19.0.0, SVG Export Plug-In . SVG Version: 6.00 Build 0)  -->

<svg
   xmlns:dc="http://purl.org/dc/elements/1.1/"
   xmlns:cc="http://creativecommons.org/ns#"
   xmlns:rdf="http://www.w3.org/1999/02/22-rdf-syntax-ns#"
   xmlns:svg="http://www.w3.org/2000/svg"
   xmlns="http://www.w3.org/2000/svg"
   xmlns:sodipodi="http://sodipodi.sourceforge.net/DTD/sodipodi-0.dtd"
   xmlns:inkscape="http://www.inkscape.org/namespaces/inkscape"
   version="1.1"
   id="Capa_1"
   x="0px"
   y="0px"
   viewBox="0 0 492.47634 493.29998"
   xml:space="preserve"
   inkscape:version="0.91 r13725"
   sodipodi:docname="logout.svg"
   width="492.47635"
   height="493.29999"><metadata
     id="metadata77"><rdf:RDF><cc:Work
         rdf:about=""><dc:format>image/svg+xml</dc:format><dc:type
           rdf:resource="http://purl.org/dc/dcmitype/StillImage" /><dc:title></dc:title></cc:Work></rdf:RDF></metadata><defs
     id="defs75" /><sodipodi:namedview
     pagecolor="#ffffff"
     bordercolor="#666666"
     borderopacity="1"
     objecttolerance="10"
     gridtolerance="10"
     guidetolerance="10"
     inkscape:pageopacity="0"
     inkscape:pageshadow="2"
     inkscape:window-width="1280"
     inkscape:window-height="733"
     id="namedview73"
     showgrid="false"
     inkscape:zoom="0.50983175"
     inkscape:cx="211.74933"
     inkscape:cy="93.845262"
     inkscape:window-x="0"
     inkscape:window-y="0"
     inkscape:window-maximized="1"
     inkscape:current-layer="Capa_1"
     fit-margin-top="0"
     fit-margin-left="0"
     fit-margin-right="0"
     fit-margin-bottom="0"
     showguides="true"
     inkscape:guide-bbox="true" /><path
     inkscape:connector-curvature="0"
     style="fill:none;stroke:#000000;stroke-width:4;stroke-miterlimit:4;stroke-dasharray:none;stroke-opacity:1"
     id="path11"
     d="M 104.7,491.3 C 48,491.3 2,445.2 2,388.5 L 2,104.8 C 2,48.1 48.1,2 104.7,2 l 125.7,0 c 56.7,0 102.7,46.1 102.7,102.8 l 0,58.3 c 0,9.5 -7.7,17.1 -17.1,17.1 -9.5,0 -17.2,-7.7 -17.2,-17.1 l 0,-58.3 c 0,-37.7 -30.7,-68.5 -68.4,-68.5 l -125.7,0 C 67,36.3 36.3,67 36.3,104.8 l 0,283.7 c 0,37.7 30.7,68.5 68.4,68.5 l 125.7,0 c 37.7,0 68.4,-30.7 68.4,-68.5 l 0,-57.6 c 0,-9.5 7.7,-17.2 17.2,-17.2 9.5,0 17.1,7.7 17.1,17.2 l 0,57.6 c 0,56.7 -46.1,102.8 -102.7,102.8 z"
     sodipodi:nodetypes="csssssssssssssssssssssc" /><g
     id="g43"
     transform="translate(-8,-2.9)" /><g
     id="g45"
     transform="translate(-8,-2.9)" /><g
     id="g47"
     transform="translate(-8,-2.9)" /><g
     id="g49"
     transform="translate(-8,-2.9)" /><g
     id="g51"
     transform="translate(-8,-2.9)" /><g
     id="g53"
     transform="translate(-8,-2.9)" /><g
     id="g55"
     transform="translate(-8,-2.9)" /><g
     id="g57"
     transform="translate(-8,-2.9)" /><g
     id="g59"
     transform="translate(-8,-2.9)" /><g
     id="g61"
     transform="translate(-8,-2.9)" /><g
     id="g63"
     transform="translate(-8,-2.9)" /><g
     id="g65"
     transform="translate(-8,-2.9)" /><g
     id="g67"
     transform="translate(-8,-2.9)" /><g
     id="g69"
     transform="translate(-8,-2.9)" /><g
     id="g71"
     transform="translate(-8,-2.9)" /><g
     transform="matrix(-0.45123613,0,0,0.45123613,496.01932,140.51699)"
     id="g3"
     style="fill:#008080;stroke:#000000;stroke-width:8.86453819;stroke-miterlimit:4;stroke-dasharray:none;stroke-opacity:1"><path
       inkscape:connector-curvature="0"
       d="m 853.37331,178.298 c -6.19,-7.139 -14.229,-10.707 -24.126,-10.707 l -631.09931,0 83.652,-83.654 c 7.234,-7.229 10.848,-15.891 10.848,-25.981 0,-10.085 -3.613,-18.747 -10.848,-25.979 L 260.387,10.848 C 253.156,3.619 244.59,0 234.693,0 224.604,0 215.941,3.615 208.712,10.848 L 22.848,196.428 c -7.043,7.423 -10.564,16.084 -10.564,25.981 0,10.089 3.521,18.654 10.564,25.693 l 185.864,186.152 c 7.422,7.043 16.083,10.567 25.981,10.567 10.085,0 18.65,-3.524 25.693,-10.567 l 21.413,-21.693 c 7.234,-6.851 10.848,-15.42 10.848,-25.693 0,-10.284 -3.613,-18.853 -10.848,-25.7 l -83.652,-83.939 631.09931,0 c 9.896,0 17.936,-3.569 24.126,-10.707 6.184,-7.139 9.274,-15.749 9.274,-25.838 l 0,-36.545 c 0.004,-10.089 -3.09,-18.702 -9.273,-25.841 z"
       id="path5"
       sodipodi:nodetypes="csccsccsccsccsccsccscscc"
       style="fill:#008080;stroke:#000000;stroke-width:8.86453819;stroke-miterlimit:4;stroke-dasharray:none;stroke-opacity:1" /></g></svg>