<?xml version="1.0" encoding="UTF-8" standalone="no"?>
<!-- Generator: Adobe Illustrator 19.0.0, SVG Export Plug-In . SVG Version: 6.00 Build 0)  -->

<svg
   xmlns:dc="http://purl.org/dc/elements/1.1/"
   xmlns:cc="http://creativecommons.org/ns#"
   xmlns:rdf="http://www.w3.org/1999/02/22-rdf-syntax-ns#"
   xmlns:svg="http://www.w3.org/2000/svg"
   xmlns="http://www.w3.org/2000/svg"
   xmlns:sodipodi="http://sodipodi.sourceforge.net/DTD/sodipodi-0.dtd"
   xmlns:inkscape="http://www.inkscape.org/namespaces/inkscape"
   version="1.1"
   id="Capa_1"
   x="0px"
   y="0px"
   viewBox="0 0 512 512"
   style="enable-background:new 0 0 512 512;"
   xml:space="preserve"
   width="512px"
   height="512px"
   inkscape:version="0.91 r13725"
   sodipodi:docname="logout.svg"><metadata
     id="metadata47"><rdf:RDF><cc:Work
         rdf:about=""><dc:format>image/svg+xml</dc:format><dc:type
           rdf:resource="http://purl.org/dc/dcmitype/StillImage" /></cc:Work></rdf:RDF></metadata><defs
     id="defs45" /><sodipodi:namedview
     pagecolor="#ffffff"
     bordercolor="#666666"
     borderopacity="1"
     objecttolerance="10"
     gridtolerance="10"
     guidetolerance="10"
     inkscape:pageopacity="0"
     inkscape:pageshadow="2"
     inkscape:window-width="1280"
     inkscape:window-height="733"
     id="namedview43"
     showgrid="false"
     inkscape:zoom="0.4609375"
     inkscape:cx="-58.576271"
     inkscape:cy="256"
     inkscape:window-x="0"
     inkscape:window-y="0"
     inkscape:window-maximized="1"
     inkscape:current-layer="Capa_1" /><path
     inkscape:connector-curvature="0"
     style="fill:#ff0000;fill-opacity:1;stroke:#000000;stroke-opacity:1;stroke-width:14;stroke-miterlimit:4;stroke-dasharray:none"
     id="path9"
     d="m 492.371,226.513 c -1.088,-2.603 -2.645,-4.971 -4.629,-6.955 l -63.979,-63.979 c -8.341,-8.32 -21.824,-8.32 -30.165,0 -8.341,8.341 -8.341,21.845 0,30.165 l 27.584,27.584 -195.169,0 c -11.797,0 -21.333,9.557 -21.333,21.333 0,11.776 9.536,21.333 21.333,21.333 l 195.168,0 -27.584,27.584 c -8.341,8.341 -8.341,21.845 0,30.165 4.16,4.181 9.621,6.251 15.083,6.251 5.462,0 10.923,-2.069 15.083,-6.251 l 63.979,-63.979 c 1.984,-1.963 3.541,-4.331 4.629,-6.955 2.154,-5.203 2.154,-11.091 0,-16.296 z"
     sodipodi:nodetypes="csccccssscscscccc" /><g
     id="g13"
     style="fill:#d40000" /><g
     id="g15"
     style="fill:#d40000" /><g
     id="g17"
     style="fill:#d40000" /><g
     id="g19"
     style="fill:#d40000" /><g
     id="g21"
     style="fill:#d40000" /><g
     id="g23"
     style="fill:#d40000" /><g
     id="g25"
     style="fill:#d40000" /><g
     id="g27"
     style="fill:#d40000" /><g
     id="g29"
     style="fill:#d40000" /><g
     id="g31"
     style="fill:#d40000" /><g
     id="g33"
     style="fill:#d40000" /><g
     id="g35"
     style="fill:#d40000" /><g
     id="g37"
     style="fill:#d40000" /><g
     id="g39"
     style="fill:#d40000" /><g
     id="g41"
     style="fill:#d40000" /><path
     inkscape:connector-curvature="0"
     style="fill:#ffffff;stroke:#000000;stroke-opacity:1;stroke-width:14;stroke-miterlimit:4;stroke-dasharray:none"
     id="path11"
     d="m 362.68,298.667 c -11.797,0 -21.333,9.557 -21.333,21.333 l 0,106.667 -85.333,0 0,-341.334 c 0,-9.408 -6.187,-17.728 -15.211,-20.437 l -74.091,-22.229 174.635,0 0,106.667 c 0,11.776 9.536,21.333 21.333,21.333 11.797,0 21.333,-9.557 21.333,-21.333 l 0,-128 C 384.013,9.557 374.477,0 362.68,0 L 21.347,0 C 20.579,0 19.896,0.32 19.15,0.405 18.147,0.512 17.23,0.682 16.27,0.917 14.03,1.493 12.003,2.368 10.105,3.562 9.636,3.861 9.06,3.882 8.612,4.223 8.44,4.352 8.376,4.587 8.205,4.715 5.88,6.549 3.939,8.789 2.531,11.456 c -0.299,0.576 -0.363,1.195 -0.597,1.792 -0.683,1.621 -1.429,3.2 -1.685,4.992 -0.107,0.64 0.085,1.237 0.064,1.856 -0.021,0.427 -0.299,0.811 -0.299,1.237 l 0,426.667 c 0,10.176 7.189,18.923 17.152,20.907 l 213.333,42.667 c 1.387,0.299 2.795,0.427 4.181,0.427 4.885,0 9.685,-1.685 13.525,-4.843 4.928,-4.053 7.808,-10.091 7.808,-16.491 l 0,-21.333 106.667,0 c 11.797,0 21.333,-9.557 21.333,-21.333 l 0,-128.001 c 0,-11.776 -9.536,-21.333 -21.333,-21.333 z" /></svg>