<?xml version="1.0" encoding="UTF-8" standalone="no"?>
<svg
   xmlns:dc="http://purl.org/dc/elements/1.1/"
   xmlns:cc="http://creativecommons.org/ns#"
   xmlns:rdf="http://www.w3.org/1999/02/22-rdf-syntax-ns#"
   xmlns:svg="http://www.w3.org/2000/svg"
   xmlns="http://www.w3.org/2000/svg"
   xmlns:sodipodi="http://sodipodi.sourceforge.net/DTD/sodipodi-0.dtd"
   xmlns:inkscape="http://www.inkscape.org/namespaces/inkscape"
   version="1.1"
   viewBox="0 0 16.958523 17.015193"
   enable-background="new 0 0 24 24"
   width="361.78183"
   height="362.99078"
   id="svg2"
   inkscape:version="0.91 r13725"
   sodipodi:docname="menu.svg">
  <metadata
     id="metadata16">
    <rdf:RDF>
      <cc:Work
         rdf:about="">
        <dc:format>image/svg+xml</dc:format>
        <dc:type
           rdf:resource="http://purl.org/dc/dcmitype/StillImage" />
        <dc:title></dc:title>
      </cc:Work>
    </rdf:RDF>
  </metadata>
  <defs
     id="defs14" />
  <sodipodi:namedview
     pagecolor="#ffffff"
     bordercolor="#666666"
     borderopacity="1"
     objecttolerance="10"
     gridtolerance="10"
     guidetolerance="10"
     inkscape:pageopacity="0"
     inkscape:pageshadow="2"
     inkscape:window-width="1280"
     inkscape:window-height="733"
     id="namedview12"
     showgrid="false"
     inkscape:zoom="0.4609375"
     inkscape:cx="-53.414178"
     inkscape:cy="178.49538"
     inkscape:window-x="0"
     inkscape:window-y="0"
     inkscape:window-maximized="1"
     inkscape:current-layer="svg2"
     fit-margin-top="0"
     fit-margin-left="0"
     fit-margin-right="0"
     fit-margin-bottom="0" />
  <path
     inkscape:connector-curvature="0"
     style="fill:#a3da41;fill-opacity:1;stroke:#000000;stroke-width:0.37500003;stroke-miterlimit:4;stroke-dasharray:none;stroke-opacity:1"
     id="path6"
     d="m 16.771023,1.1940896 c 0,-0.60395418 -0.276392,-1.0065903 -0.690981,-1.0065903 l -15.20156188,0 c -0.41458807,0 -0.69098011,0.40263612 -0.69098011,1.0065903 l 0,2.0131807 c 0,0.6039541 0.27639204,1.0065903 0.69098011,1.0065903 l 15.20156188,0 c 0.414589,0 0.690981,-0.4026362 0.690981,-1.0065903 l 0,-2.0131807 z" />
  <path
     inkscape:connector-curvature="0"
     style="fill:#a3da41;fill-opacity:1;stroke:#000000;stroke-width:0.37500003;stroke-miterlimit:4;stroke-dasharray:none;stroke-opacity:1"
     id="path8"
     d="m 16.771023,7.5494267 c 0,-0.6039542 -0.276392,-1.0065903 -0.690981,-1.0065903 l -15.20156188,0 c -0.41458807,0 -0.69098011,0.4026361 -0.69098011,1.0065903 l 0,2.0131806 c 0,0.6039537 0.27639204,1.0065897 0.69098011,1.0065897 l 15.20156188,0 c 0.414589,0 0.690981,-0.402636 0.690981,-1.0065897 l 0,-2.0131806 z" />
  <path
     inkscape:connector-curvature="0"
     style="fill:#a3da41;fill-opacity:1;stroke:#000000;stroke-width:0.37500003;stroke-miterlimit:4;stroke-dasharray:none;stroke-opacity:1"
     id="path10"
     d="m 16.771023,13.807924 c 0,-0.603954 -0.276392,-1.00659 -0.690981,-1.00659 l -15.20156188,0 c -0.41458807,0 -0.69098011,0.402636 -0.69098011,1.00659 l 0,2.013181 c 0,0.603954 0.27639204,1.00659 0.69098011,1.00659 l 15.20156188,0 c 0.414589,0 0.690981,-0.402636 0.690981,-1.00659 l 0,-2.013181 z" />
</svg>
