<?xml version="1.0" encoding="UTF-8" standalone="no"?>
<!-- Generator: Adobe Illustrator 19.0.0, SVG Export Plug-In . SVG Version: 6.00 Build 0)  -->

<svg
   xmlns:dc="http://purl.org/dc/elements/1.1/"
   xmlns:cc="http://creativecommons.org/ns#"
   xmlns:rdf="http://www.w3.org/1999/02/22-rdf-syntax-ns#"
   xmlns:svg="http://www.w3.org/2000/svg"
   xmlns="http://www.w3.org/2000/svg"
   xmlns:sodipodi="http://sodipodi.sourceforge.net/DTD/sodipodi-0.dtd"
   xmlns:inkscape="http://www.inkscape.org/namespaces/inkscape"
   version="1.1"
   id="Capa_1"
   x="0px"
   y="0px"
   viewBox="0 0 440.36441 459.25623"
   xml:space="preserve"
   inkscape:version="0.91 r13725"
   sodipodi:docname="registration.svg"
   width="440.36441"
   height="459.25623"><metadata
     id="metadata85"><rdf:RDF><cc:Work
         rdf:about=""><dc:format>image/svg+xml</dc:format><dc:type
           rdf:resource="http://purl.org/dc/dcmitype/StillImage" /><dc:title /></cc:Work></rdf:RDF></metadata><defs
     id="defs83" /><sodipodi:namedview
     pagecolor="#654040"
     bordercolor="#666666"
     borderopacity="1"
     objecttolerance="10"
     gridtolerance="10"
     guidetolerance="10"
     inkscape:pageopacity="0"
     inkscape:pageshadow="2"
     inkscape:window-width="1280"
     inkscape:window-height="733"
     id="namedview81"
     showgrid="false"
     inkscape:zoom="0.92187499"
     inkscape:cx="-246.99954"
     inkscape:cy="272.44832"
     inkscape:window-x="0"
     inkscape:window-y="0"
     inkscape:window-maximized="1"
     inkscape:current-layer="Capa_1"
     inkscape:snap-global="true"
     fit-margin-top="0"
     fit-margin-left="0"
     fit-margin-right="0"
     fit-margin-bottom="0" /><path
     d="m 425.29361,1.0807218 -410.222807,0 c -7.8127399,0 -14.1454958,7.3964075 -14.1454958,16.5213772 l 0,424.052031 c 0,9.12497 6.3327559,16.52137 14.1454958,16.52137 l 410.222807,0 c 7.81274,0 14.14549,-7.3964 14.14549,-16.52137 l 0,-424.052031 c 0,-9.1249697 -6.33275,-16.5213772 -14.14549,-16.5213772 z m -14.1455,424.0520282 -381.931811,0 0,-391.009273 381.930961,0 0,391.009273 z"
     id="path7"
     style="fill:none;stroke:#000000;stroke-width:4;stroke-miterlimit:4;stroke-dasharray:none;stroke-opacity:1"
     inkscape:connector-curvature="0" /><ellipse
     cx="132.95137"
     cy="78.180817"
     id="circle19"
     style="fill:none;stroke-width:4;stroke-miterlimit:4;stroke-dasharray:none"
     rx="23.576113"
     ry="27.535963" /><ellipse
     cx="194.24823"
     cy="78.180817"
     id="circle25"
     style="fill:none;stroke-width:4;stroke-miterlimit:4;stroke-dasharray:none"
     rx="23.576113"
     ry="27.535963" /><ellipse
     cx="71.653641"
     cy="78.180817"
     id="circle31"
     style="fill:none;stroke-width:4;stroke-miterlimit:4;stroke-dasharray:none"
     rx="23.576113"
     ry="27.535963" /><path
     d="m 300.10875,276.67727 -149.94346,0 c -7.81274,0 -14.14549,7.39641 -14.14549,16.52138 0,9.12497 6.33275,16.52137 14.14549,16.52137 l 149.94346,0 c 7.81274,0 14.14549,-7.3964 14.14549,-16.52137 0,-9.12497 -6.3319,-16.52138 -14.14549,-16.52138 z"
     id="path49"
     style="fill:#008080;fill-opacity:0.78431373;stroke:#000000;stroke-width:4;stroke-miterlimit:4;stroke-dasharray:none;stroke-opacity:1"
     inkscape:connector-curvature="0" /><rect
     style="fill:#008080;fill-opacity:0.78431373;stroke:#000000;stroke-width:4;stroke-miterlimit:4;stroke-dasharray:none;stroke-opacity:1"
     id="rect4238"
     height="33.042755"
     width="328.46597"
     y="67.703476"
     x="55.949211" /><rect
     style="fill:#008080;fill-opacity:0.78431373;stroke:#000000;stroke-width:4;stroke-miterlimit:4;stroke-dasharray:none;stroke-opacity:1"
     id="rect4238-5"
     height="33.042755"
     width="328.46597"
     y="139.32001"
     x="54.091103" /><rect
     style="fill:#008080;fill-opacity:0.78431373;stroke:#000000;stroke-width:4;stroke-miterlimit:4;stroke-dasharray:none;stroke-opacity:1"
     id="rect4238-5-9"
     height="33.042755"
     width="328.46597"
     y="208.76634"
     x="54.091103" /></svg>