<?xml version="1.0" encoding="UTF-8" standalone="no"?>
<!-- Generator: Adobe Illustrator 19.0.0, SVG Export Plug-In . SVG Version: 6.00 Build 0)  -->

<svg
   xmlns:dc="http://purl.org/dc/elements/1.1/"
   xmlns:cc="http://creativecommons.org/ns#"
   xmlns:rdf="http://www.w3.org/1999/02/22-rdf-syntax-ns#"
   xmlns:svg="http://www.w3.org/2000/svg"
   xmlns="http://www.w3.org/2000/svg"
   xmlns:sodipodi="http://sodipodi.sourceforge.net/DTD/sodipodi-0.dtd"
   xmlns:inkscape="http://www.inkscape.org/namespaces/inkscape"
   version="1.1"
   id="Capa_1"
   x="0px"
   y="0px"
   viewBox="0 0 504.161 504.161"
   style="enable-background:new 0 0 504.161 504.161;"
   xml:space="preserve"
   inkscape:version="0.92.3 (2405546, 2018-03-11)"
   sodipodi:docname="request.svg"><metadata
     id="metadata53"><rdf:RDF><cc:Work
         rdf:about=""><dc:format>image/svg+xml</dc:format><dc:type
           rdf:resource="http://purl.org/dc/dcmitype/StillImage" /></cc:Work></rdf:RDF></metadata><defs
     id="defs51" /><sodipodi:namedview
     pagecolor="#ffffff"
     bordercolor="#666666"
     borderopacity="1"
     objecttolerance="10"
     gridtolerance="10"
     guidetolerance="10"
     inkscape:pageopacity="0"
     inkscape:pageshadow="2"
     inkscape:window-width="1280"
     inkscape:window-height="743"
     id="namedview49"
     showgrid="false"
     inkscape:zoom="0.66199963"
     inkscape:cx="-23.40061"
     inkscape:cy="168.07937"
     inkscape:window-x="0"
     inkscape:window-y="0"
     inkscape:window-maximized="1"
     inkscape:current-layer="Capa_1" /><path
     inkscape:connector-curvature="0"
     id="path9"
     d="m 344.131,268.867 c -4.636,0 -8.393,3.758 -8.393,8.393 l 0,201.443 c 0,4.636 -3.758,8.393 -8.393,8.393 l -302.165,0 c -4.636,0 -8.393,-3.758 -8.393,-8.393 l 0,-453.246 c 0,-4.636 3.758,-8.393 8.393,-8.393 l 302.164,0 c 4.636,0 8.393,3.758 8.393,8.393 l 0,50.361 c 0,4.636 3.758,8.393 8.393,8.393 4.635,0 8.393,-3.758 8.393,-8.393 l 0,-50.361 c 0,-13.907 -11.274,-25.18 -25.18,-25.18 l -302.163,0 C 11.274,0.277 0,11.551 0,25.457 l 0,453.246 c 0,13.907 11.274,25.18 25.18,25.18 l 302.164,0 c 13.907,0 25.18,-11.274 25.18,-25.18 l 0,-201.442 c 10e-4,-4.636 -3.757,-8.394 -8.393,-8.394 z"
     style="stroke-width:4;stroke-miterlimit:4;stroke-dasharray:none;fill:none;fill-opacity:1;stroke:#000000;stroke-opacity:1" /><path
     inkscape:connector-curvature="0"
     id="path11"
     d="m 491.869,28.793 c -16.339,-16.338 -42.81,-16.396 -59.22,-0.13 l 0.017,-0.008 -55.262,55.254 -288.971,288.987 c -0.084,0.076 -0.109,0.185 -0.185,0.26 -0.664,0.691 -1.203,1.492 -1.595,2.367 l -0.067,0.143 -35.546,82.944 c -1.112,2.593 -0.846,5.571 0.707,7.927 1.553,2.356 4.185,3.773 7.007,3.774 1.137,0.002 2.263,-0.229 3.307,-0.68 l 82.936,-35.546 0.143,-0.067 c 0.877,-0.388 1.678,-0.928 2.367,-1.595 0.076,-0.076 0.185,-0.101 0.26,-0.185 L 436.745,143.277 491.999,88.015 c 16.266,-16.411 16.208,-42.883 -0.13,-59.222 z m -61.05,96.664 -35.605,-35.605 13.707,-13.715 35.613,35.613 z M 480.147,76.179 480.105,76.171 456.36,99.916 420.789,64.269 444.534,40.566 c 6.362,-6.362 15.634,-8.846 24.324,-6.518 8.69,2.329 15.478,9.116 17.807,17.807 2.328,8.69 -0.156,17.962 -6.518,24.324 z"
     style="fill:#008080;fill-opacity:1;stroke:#000000;stroke-width:4;stroke-miterlimit:4;stroke-dasharray:none;stroke-opacity:1"
     sodipodi:nodetypes="cccccccccscccccccccccccccccccccc" /><path
     inkscape:connector-curvature="0"
     id="path13"
     d="m 276.984,75.818 -201.443,0 c -4.636,0 -8.393,3.758 -8.393,8.393 0,4.635 3.758,8.393 8.393,8.393 l 201.443,0 c 4.636,0 8.393,-3.758 8.393,-8.393 0,-4.635 -3.758,-8.393 -8.393,-8.393 z"
     style="fill:#008080;fill-opacity:1;stroke:#000000;stroke-opacity:1;stroke-width:4;stroke-miterlimit:4;stroke-dasharray:none" /><path
     inkscape:connector-curvature="0"
     id="path15"
     d="m 285.377,134.572 c 0,-4.636 -3.758,-8.393 -8.393,-8.393 l -201.443,0 c -4.636,0 -8.393,3.758 -8.393,8.393 0,4.635 3.758,8.393 8.393,8.393 l 201.443,0 c 4.635,0.001 8.393,-3.757 8.393,-8.393 z"
     style="fill:#008080;fill-opacity:1;stroke:#000000;stroke-opacity:1;stroke-width:4;stroke-miterlimit:4;stroke-dasharray:none" /><path
     inkscape:connector-curvature="0"
     id="path17"
     d="m 75.541,176.539 c -4.636,0 -8.393,3.758 -8.393,8.393 0,4.635 3.758,8.393 8.393,8.393 l 151.082,0 c 4.636,0 8.393,-3.758 8.393,-8.393 0,-4.635 -3.758,-8.393 -8.393,-8.393 l -151.082,0 z"
     style="fill:#008080;fill-opacity:1;stroke:#000000;stroke-opacity:1;stroke-width:4;stroke-miterlimit:4;stroke-dasharray:none" /><g
     id="g19"
     style="stroke-width:4;stroke-miterlimit:4;stroke-dasharray:none" /><g
     id="g21"
     style="stroke-width:4;stroke-miterlimit:4;stroke-dasharray:none" /><g
     id="g23"
     style="stroke-width:4;stroke-miterlimit:4;stroke-dasharray:none" /><g
     id="g25"
     style="stroke-width:4;stroke-miterlimit:4;stroke-dasharray:none" /><g
     id="g27"
     style="stroke-width:4;stroke-miterlimit:4;stroke-dasharray:none" /><g
     id="g29"
     style="stroke-width:4;stroke-miterlimit:4;stroke-dasharray:none" /><g
     id="g31"
     style="stroke-width:4;stroke-miterlimit:4;stroke-dasharray:none" /><g
     id="g33"
     style="stroke-width:4;stroke-miterlimit:4;stroke-dasharray:none" /><g
     id="g35"
     style="stroke-width:4;stroke-miterlimit:4;stroke-dasharray:none" /><g
     id="g37"
     style="stroke-width:4;stroke-miterlimit:4;stroke-dasharray:none" /><g
     id="g39"
     style="stroke-width:4;stroke-miterlimit:4;stroke-dasharray:none" /><g
     id="g41"
     style="stroke-width:4;stroke-miterlimit:4;stroke-dasharray:none" /><g
     id="g43"
     style="stroke-width:4;stroke-miterlimit:4;stroke-dasharray:none" /><g
     id="g45"
     style="stroke-width:4;stroke-miterlimit:4;stroke-dasharray:none" /><g
     id="g47"
     style="stroke-width:4;stroke-miterlimit:4;stroke-dasharray:none" /></svg>