<?xml version="1.0" encoding="UTF-8" standalone="no"?>
<!-- Generator: Adobe Illustrator 16.0.0, SVG Export Plug-In . SVG Version: 6.00 Build 0)  -->

<svg
   xmlns:dc="http://purl.org/dc/elements/1.1/"
   xmlns:cc="http://creativecommons.org/ns#"
   xmlns:rdf="http://www.w3.org/1999/02/22-rdf-syntax-ns#"
   xmlns:svg="http://www.w3.org/2000/svg"
   xmlns="http://www.w3.org/2000/svg"
   xmlns:sodipodi="http://sodipodi.sourceforge.net/DTD/sodipodi-0.dtd"
   xmlns:inkscape="http://www.inkscape.org/namespaces/inkscape"
   version="1.1"
   id="Capa_1"
   x="0px"
   y="0px"
   width="512px"
   height="512px"
   viewBox="0 0 485.213 485.213"
   style="enable-background:new 0 0 485.213 485.213;"
   xml:space="preserve"
   inkscape:version="0.92.3 (2405546, 2018-03-11)"
   sodipodi:docname="search.svg"><metadata
     id="metadata47"><rdf:RDF><cc:Work
         rdf:about=""><dc:format>image/svg+xml</dc:format><dc:type
           rdf:resource="http://purl.org/dc/dcmitype/StillImage" /></cc:Work></rdf:RDF></metadata><defs
     id="defs45" /><sodipodi:namedview
     pagecolor="#ffffff"
     bordercolor="#666666"
     borderopacity="1"
     objecttolerance="10"
     gridtolerance="10"
     guidetolerance="10"
     inkscape:pageopacity="0"
     inkscape:pageshadow="2"
     inkscape:window-width="1280"
     inkscape:window-height="743"
     id="namedview43"
     showgrid="false"
     inkscape:zoom="0.4609375"
     inkscape:cx="-457.76271"
     inkscape:cy="256"
     inkscape:window-x="0"
     inkscape:window-y="0"
     inkscape:window-maximized="1"
     inkscape:current-layer="Capa_1" /><path
     d="M 471.882,407.567 360.567,296.243 c -16.586,25.795 -38.536,47.734 -64.331,64.321 L 407.56,471.888 c 17.772,17.768 46.587,17.768 64.321,0 17.773,-17.739 17.773,-46.554 0.001,-64.321 z"
     id="path7"
     style="fill:none;stroke:#000000;stroke-width:3.79072666;stroke-miterlimit:4;stroke-dasharray:none;stroke-opacity:1"
     inkscape:connector-curvature="0" /><path
     d="M 363.909,181.955 C 363.909,81.473 282.44,0 181.956,0 81.474,0 0.001,81.473 0.001,181.955 c 0,100.482 81.473,181.951 181.955,181.951 100.484,0 181.953,-81.469 181.953,-181.951 z M 181.956,318.416 c -75.252,0 -136.465,-61.208 -136.465,-136.46 0,-75.252 61.213,-136.465 136.465,-136.465 75.25,0 136.468,61.213 136.468,136.465 0,75.252 -61.218,136.46 -136.468,136.46 z"
     id="path9"
     style="fill:#008080;stroke:#000000;stroke-width:3.79072666;stroke-miterlimit:4;stroke-dasharray:none;stroke-opacity:1;fill-opacity:1"
     inkscape:connector-curvature="0" /><path
     d="m 75.817,181.955 30.322,0 c 0,-41.803 34.014,-75.814 75.816,-75.814 l 0,-30.325 c -58.517,0 -106.138,47.621 -106.138,106.139 z"
     id="path11"
     style="fill:none;stroke:#000000;stroke-width:3.79072666;stroke-miterlimit:4;stroke-dasharray:none;stroke-opacity:1"
     inkscape:connector-curvature="0" /><g
     id="g13"
     style="fill:#ffff00" /><g
     id="g15"
     style="fill:#ffff00" /><g
     id="g17"
     style="fill:#ffff00" /><g
     id="g19"
     style="fill:#ffff00" /><g
     id="g21"
     style="fill:#ffff00" /><g
     id="g23"
     style="fill:#ffff00" /><g
     id="g25"
     style="fill:#ffff00" /><g
     id="g27"
     style="fill:#ffff00" /><g
     id="g29"
     style="fill:#ffff00" /><g
     id="g31"
     style="fill:#ffff00" /><g
     id="g33"
     style="fill:#ffff00" /><g
     id="g35"
     style="fill:#ffff00" /><g
     id="g37"
     style="fill:#ffff00" /><g
     id="g39"
     style="fill:#ffff00" /><g
     id="g41"
     style="fill:#ffff00" /></svg>