<?xml version="1.0" encoding="UTF-8" standalone="no"?>
<!-- Generator: Adobe Illustrator 19.0.0, SVG Export Plug-In . SVG Version: 6.00 Build 0)  -->

<svg
   xmlns:dc="http://purl.org/dc/elements/1.1/"
   xmlns:cc="http://creativecommons.org/ns#"
   xmlns:rdf="http://www.w3.org/1999/02/22-rdf-syntax-ns#"
   xmlns:svg="http://www.w3.org/2000/svg"
   xmlns="http://www.w3.org/2000/svg"
   xmlns:sodipodi="http://sodipodi.sourceforge.net/DTD/sodipodi-0.dtd"
   xmlns:inkscape="http://www.inkscape.org/namespaces/inkscape"
   version="1.1"
   id="Capa_1"
   x="0px"
   y="0px"
   viewBox="0 0 536.70605 520"
   xml:space="preserve"
   inkscape:version="0.91 r13725"
   sodipodi:docname="banners.svg"
   width="536.70605"
   height="520"><metadata
     id="metadata73"><rdf:RDF><cc:Work
         rdf:about=""><dc:format>image/svg+xml</dc:format><dc:type
           rdf:resource="http://purl.org/dc/dcmitype/StillImage" /><dc:title /></cc:Work></rdf:RDF></metadata><defs
     id="defs71" /><sodipodi:namedview
     pagecolor="#ffffff"
     bordercolor="#666666"
     borderopacity="1"
     objecttolerance="10"
     gridtolerance="10"
     guidetolerance="10"
     inkscape:pageopacity="0"
     inkscape:pageshadow="2"
     inkscape:window-width="1280"
     inkscape:window-height="733"
     id="namedview69"
     showgrid="false"
     inkscape:zoom="0.65186406"
     inkscape:cx="60.16404"
     inkscape:cy="213.70164"
     inkscape:window-x="0"
     inkscape:window-y="0"
     inkscape:window-maximized="1"
     inkscape:current-layer="Capa_1"
     fit-margin-top="0"
     fit-margin-left="0"
     fit-margin-right="0"
     fit-margin-bottom="0" /><path
     inkscape:connector-curvature="0"
     id="path9"
     d="m 58.442,38.812 c -2.079,-0.85 -4.409,-0.85 -6.487,0 -1.044,0.413 -1.999,1.023 -2.813,1.796 -1.559,1.635 -2.443,3.799 -2.475,6.059 0.013,0.572 0.071,1.141 0.171,1.704 0.091,0.535 0.263,1.053 0.508,1.537 0.188,0.544 0.447,1.062 0.771,1.538 0.316,0.447 0.658,0.874 1.025,1.279 0.815,0.771 1.77,1.379 2.813,1.792 2.066,0.911 4.421,0.911 6.487,0 1.034,-0.434 1.986,-1.04 2.817,-1.792 0.341,-0.429 0.683,-0.854 1.021,-1.279 0.324,-0.476 0.583,-0.993 0.771,-1.538 0.245,-0.485 0.418,-1.003 0.512,-1.538 0.098,-0.563 0.155,-1.133 0.171,-1.704 -0.033,-2.259 -0.917,-4.422 -2.475,-6.059 -0.83,-0.753 -1.783,-1.361 -2.817,-1.795 z"
     style="stroke-width:4;stroke-miterlimit:4;stroke-dasharray:none;fill:none;stroke:#000000;stroke-opacity:1" /><path
     inkscape:connector-curvature="0"
     id="path11"
     d="m 95.392,40.608 c -0.83,-0.754 -1.783,-1.362 -2.817,-1.796 -3.178,-1.338 -6.849,-0.629 -9.301,1.796 -0.754,0.828 -1.362,1.78 -1.796,2.813 -0.436,1.027 -0.667,2.13 -0.679,3.246 0.014,0.572 0.071,1.141 0.171,1.704 0.091,0.535 0.263,1.053 0.508,1.537 0.187,0.544 0.447,1.062 0.771,1.538 0.316,0.447 0.658,0.874 1.025,1.279 1.636,1.558 3.8,2.441 6.059,2.475 1.115,-0.014 2.216,-0.246 3.242,-0.683 1.033,-0.434 1.986,-1.04 2.817,-1.791 1.557,-1.637 2.44,-3.8 2.475,-6.059 -0.013,-1.116 -0.245,-2.219 -0.683,-3.246 -0.435,-1.032 -1.04,-1.983 -1.792,-2.813 z"
     style="stroke-width:4;stroke-miterlimit:4;stroke-dasharray:none;fill:none;stroke:#000000;stroke-opacity:1" /><path
     inkscape:connector-curvature="0"
     id="path13"
     d="m 131.317,43.421 c -0.188,-0.543 -0.448,-1.058 -0.771,-1.533 -0.338,-0.429 -0.679,-0.854 -1.021,-1.28 -2.473,-2.387 -6.121,-3.091 -9.304,-1.796 -1.033,0.434 -1.985,1.041 -2.813,1.796 -1.573,1.627 -2.459,3.796 -2.475,6.059 0.012,1.115 0.243,2.216 0.679,3.242 0.434,1.034 1.041,1.987 1.796,2.817 0.83,0.752 1.781,1.358 2.813,1.792 1.027,0.438 2.13,0.67 3.246,0.683 0.571,-0.016 1.141,-0.073 1.704,-0.171 0.535,-0.095 1.053,-0.268 1.537,-0.513 0.544,-0.188 1.062,-0.447 1.538,-0.771 0.425,-0.338 0.85,-0.679 1.279,-1.021 0.752,-0.831 1.358,-1.783 1.792,-2.817 0.478,-1.012 0.712,-2.123 0.683,-3.242 -0.015,-0.573 -0.072,-1.144 -0.171,-1.708 -0.095,-0.534 -0.267,-1.052 -0.512,-1.537 z"
     style="stroke-width:4;stroke-miterlimit:4;stroke-dasharray:none;fill:none;stroke:#000000;stroke-opacity:1" /><path
     inkscape:connector-curvature="0"
     id="path15"
     d="m 242.933,38.133 -68.267,0 c -4.713,0 -8.533,3.82 -8.533,8.533 0,4.713 3.82,8.533 8.533,8.533 l 68.267,0 c 4.713,0 8.533,-3.82 8.533,-8.533 0,-4.713 -3.82,-8.533 -8.533,-8.533 z"
     style="stroke-width:4;stroke-miterlimit:4;stroke-dasharray:none;fill:none;stroke:#000000;stroke-opacity:1" /><path
     inkscape:connector-curvature="0"
     id="path17"
     d="m 174.667,217.333 -119.467,0 c -9.422,0.009 -17.057,7.645 -17.067,17.067 l 0,136.533 C 38.142,380.355 45.778,387.99 55.2,388 l 119.467,0 c 9.422,-0.009 17.057,-7.645 17.067,-17.067 l 0,-136.533 c -0.01,-9.422 -7.646,-17.057 -17.067,-17.067 z"
     style="fill:#008080;fill-opacity:1;stroke:#000000;stroke-width:4;stroke-miterlimit:4;stroke-dasharray:none;stroke-opacity:1"
     sodipodi:nodetypes="ccccccccc" /><path
     inkscape:connector-curvature="0"
     id="path19"
     d="m 345.333,217.333 -119.466,0 c -9.422,0.009 -17.057,7.645 -17.067,17.067 l 0,136.533 c 0.009,9.422 7.645,17.057 17.067,17.067 l 119.467,0 c 9.422,-0.009 17.057,-7.645 17.067,-17.067 l 0,-136.533 c -0.01,-9.422 -7.646,-17.057 -17.068,-17.067 z"
     style="fill:#008080;fill-opacity:1;stroke:#000000;stroke-width:4;stroke-miterlimit:4;stroke-dasharray:none;stroke-opacity:1"
     sodipodi:nodetypes="ccccccccc" /><path
     inkscape:connector-curvature="0"
     id="path21"
     d="M 413.6,46.667 C 413.572,23.114 394.486,4.028 370.933,4 L 46.667,4 C 23.114,4.028 4.028,23.114 4,46.667 L 4,473.334 C 4.028,496.886 23.114,515.972 46.667,516 l 324.267,0 c 23.553,-0.028 42.639,-19.114 42.667,-42.667 C 413.59951,331.111 413.6,188.889 413.6,46.667 Z m -392.533,0 c 0.015,-14.132 11.468,-25.585 25.6,-25.6 l 324.267,0 c 14.132,0.015 25.585,11.468 25.6,25.6 l 0,25.6 -375.467,0 z m 375.466,426.666 c -0.015,14.132 -11.468,25.585 -25.6,25.6 l -324.266,0 c -14.132,-0.015 -25.585,-11.468 -25.6,-25.6 l 0,-384 375.467,0 c 9.2e-4,127.9859 -8.5e-4,256.08143 -10e-4,384 z"
     sodipodi:nodetypes="ccccccccccccccccccccccc"
     style="fill:none;stroke:#000000;stroke-width:4;stroke-miterlimit:4;stroke-dasharray:none;stroke-opacity:1" /><g
     id="g39"
     transform="translate(4,4)"
     style="stroke-width:4;stroke-miterlimit:4;stroke-dasharray:none" /><g
     id="g41"
     transform="translate(4,4)"
     style="stroke-width:4;stroke-miterlimit:4;stroke-dasharray:none" /><g
     id="g43"
     transform="translate(4,4)"
     style="stroke-width:4;stroke-miterlimit:4;stroke-dasharray:none" /><g
     id="g45"
     transform="translate(4,4)"
     style="stroke-width:4;stroke-miterlimit:4;stroke-dasharray:none" /><g
     id="g47"
     transform="translate(4,4)"
     style="stroke-width:4;stroke-miterlimit:4;stroke-dasharray:none" /><g
     id="g49"
     transform="translate(4,4)"
     style="stroke-width:4;stroke-miterlimit:4;stroke-dasharray:none" /><g
     id="g51"
     transform="translate(4,4)"
     style="stroke-width:4;stroke-miterlimit:4;stroke-dasharray:none" /><g
     id="g53"
     transform="translate(4,4)"
     style="stroke-width:4;stroke-miterlimit:4;stroke-dasharray:none" /><g
     id="g55"
     transform="translate(4,4)"
     style="stroke-width:4;stroke-miterlimit:4;stroke-dasharray:none" /><g
     id="g57"
     transform="translate(4,4)"
     style="stroke-width:4;stroke-miterlimit:4;stroke-dasharray:none" /><g
     id="g59"
     transform="translate(4,4)"
     style="stroke-width:4;stroke-miterlimit:4;stroke-dasharray:none" /><g
     id="g61"
     transform="translate(4,4)"
     style="stroke-width:4;stroke-miterlimit:4;stroke-dasharray:none" /><g
     id="g63"
     transform="translate(4,4)"
     style="stroke-width:4;stroke-miterlimit:4;stroke-dasharray:none" /><g
     id="g65"
     transform="translate(4,4)"
     style="stroke-width:4;stroke-miterlimit:4;stroke-dasharray:none" /><g
     id="g67"
     transform="translate(4,4)"
     style="stroke-width:4;stroke-miterlimit:4;stroke-dasharray:none" /><path
     d="m 515.63808,217.333 -119.466,0 c -9.422,0.009 -17.057,7.645 -17.067,17.067 l 0,136.533 c 0.009,9.422 7.645,17.057 17.067,17.067 l 119.467,0 c 9.422,-0.009 17.057,-7.645 17.067,-17.067 l 0,-136.533 c -0.01,-9.422 -7.646,-17.057 -17.068,-17.067 z"
     id="path3449"
     inkscape:connector-curvature="0"
     style="fill:#008080;fill-opacity:1;stroke:#000000;stroke-width:4;stroke-miterlimit:4;stroke-dasharray:none;stroke-opacity:1"
     sodipodi:nodetypes="ccccccccc" /></svg>