<?xml version="1.0" encoding="UTF-8" standalone="no"?>
<!-- Generator: Adobe Illustrator 16.0.0, SVG Export Plug-In . SVG Version: 6.00 Build 0)  -->

<svg
   xmlns:dc="http://purl.org/dc/elements/1.1/"
   xmlns:cc="http://creativecommons.org/ns#"
   xmlns:rdf="http://www.w3.org/1999/02/22-rdf-syntax-ns#"
   xmlns:svg="http://www.w3.org/2000/svg"
   xmlns="http://www.w3.org/2000/svg"
   xmlns:sodipodi="http://sodipodi.sourceforge.net/DTD/sodipodi-0.dtd"
   xmlns:inkscape="http://www.inkscape.org/namespaces/inkscape"
   version="1.1"
   id="Capa_1"
   x="0px"
   y="0px"
   width="520"
   height="438.87103"
   viewBox="0 0 81.382031 68.685031"
   xml:space="preserve"
   inkscape:version="0.91 r13725"
   sodipodi:docname="users.svg"><metadata
     id="metadata41"><rdf:RDF><cc:Work
         rdf:about=""><dc:format>image/svg+xml</dc:format><dc:type
           rdf:resource="http://purl.org/dc/dcmitype/StillImage" /><dc:title></dc:title></cc:Work></rdf:RDF></metadata><defs
     id="defs39" /><sodipodi:namedview
     pagecolor="#9e5c5c"
     bordercolor="#666666"
     borderopacity="1"
     objecttolerance="10"
     gridtolerance="10"
     guidetolerance="10"
     inkscape:pageopacity="0.39607843"
     inkscape:pageshadow="2"
     inkscape:window-width="1280"
     inkscape:window-height="733"
     id="namedview37"
     showgrid="false"
     inkscape:zoom="0.65186406"
     inkscape:cx="-119.59711"
     inkscape:cy="240.59561"
     inkscape:window-x="0"
     inkscape:window-y="0"
     inkscape:window-maximized="1"
     inkscape:current-layer="Capa_1"
     fit-margin-top="0"
     fit-margin-left="0"
     fit-margin-right="0"
     fit-margin-bottom="0" /><path
     style="fill:#ffffff;fill-opacity:0.78431373;stroke:#000000;stroke-width:0.62601566;stroke-miterlimit:4;stroke-dasharray:none;stroke-opacity:0.78431373"
     d="m 48.981016,12.200016 c 3.705,2.323 6.303,6.254 6.776,10.817 1.511,0.706 3.188,1.112 4.966,1.112 6.491,0 11.752,-5.261 11.752,-11.751 0,-6.4910004 -5.261,-11.7520004 -11.752,-11.7520004 -6.429,0.002 -11.644,5.169 -11.742,11.5740004 z"
     id="path4176"
     inkscape:connector-curvature="0" /><path
     style="fill:#ffffff;fill-opacity:0.78431373;stroke:#000000;stroke-width:0.62601566;stroke-miterlimit:4;stroke-dasharray:none;stroke-opacity:0.78431373"
     d="m 41.282016,36.262016 c 6.491,0 11.752,-5.262 11.752,-11.752 0,-6.49 -5.262,-11.751 -11.752,-11.751 -6.49,0 -11.754,5.262 -11.754,11.752 0,6.49 5.264,11.751 11.754,11.751 z"
     id="path4174"
     inkscape:connector-curvature="0" /><path
     style="fill:#008080;fill-opacity:0.78431373;stroke:#000000;stroke-width:0.62601566;stroke-miterlimit:4;stroke-dasharray:none;stroke-opacity:0.78431373"
     d="m 46.267016,37.063016 -9.972,0 c -8.297,0 -15.047,6.751 -15.047,15.048 l 0,12.195 0.031,0.191 0.84,0.263 c 7.918,2.474 14.797,3.299 20.459,3.299 11.059,0 17.469,-3.153 17.864,-3.354 l 0.785,-0.397 0.084,0 0,-12.197 c 0.003,-8.297 -6.747,-15.048 -15.044,-15.048 z"
     id="path4172"
     inkscape:connector-curvature="0" /><path
     style="fill:#ffffff;fill-opacity:0.78431373;stroke:#000000;stroke-width:0.62601566;stroke-miterlimit:4;stroke-dasharray:none;stroke-opacity:0.78431373"
     d="m 65.710016,24.931016 -9.895,0 c -0.107,3.959 -1.797,7.524 -4.47,10.088 7.375,2.193 12.771,9.032 12.771,17.11 l 0,3.758 c 9.77,-0.358 15.4,-3.127 15.771,-3.313 l 0.785,-0.398 0.084,0 0,-12.199 c 0,-8.296 -6.75,-15.046 -15.046,-15.046 z"
     id="path4170"
     inkscape:connector-curvature="0" /><path
     style="fill:#ffffff;fill-opacity:0.78431373;stroke:#000000;stroke-width:0.62601566;stroke-miterlimit:4;stroke-dasharray:none;stroke-opacity:0.78431373"
     d="m 20.661016,24.131016 c 2.299,0 4.438,-0.671 6.25,-1.814 0.576,-3.757 2.59,-7.04 5.467,-9.276 0.012,-0.22 0.033,-0.438 0.033,-0.66 0,-6.4910004 -5.262,-11.7520004 -11.75,-11.7520004 -6.492,0 -11.7520004,5.261 -11.7520004,11.7520004 0,6.488 5.2600004,11.75 11.7520004,11.75 z"
     id="path4168"
     inkscape:connector-curvature="0" /><path
     style="fill:#ffffff;fill-opacity:0.78431373;stroke:#000000;stroke-width:0.62601566;stroke-miterlimit:4;stroke-dasharray:none;stroke-opacity:0.78431373"
     d="m 31.215016,35.019016 c -2.66,-2.551 -4.344,-6.097 -4.467,-10.032 -0.367,-0.027 -0.73,-0.056 -1.104,-0.056 l -9.971,0 c -8.2970004,0 -15.0470004,6.75 -15.0470004,15.046 l 0,12.197 0.031,0.188 0.84,0.265 c 6.352,1.983 12.0210004,2.897 16.9450004,3.185 l 0,-3.683 c 0.002,-8.078 5.396,-14.915 12.773,-17.11 z"
     id="path5"
     inkscape:connector-curvature="0" /><g
     id="g7"
     style="fill:#ffffff;fill-opacity:1;stroke:#000000;stroke-width:0.62601566;stroke-miterlimit:4;stroke-dasharray:none;stroke-opacity:0.78431373"
     transform="translate(0.6260156,-5.7219844)" /><g
     id="g9"
     style="fill:#ffffff;fill-opacity:1;stroke:#000000;stroke-width:0.62601566;stroke-miterlimit:4;stroke-dasharray:none;stroke-opacity:0.78431373"
     transform="translate(0.6260156,-5.7219844)" /><g
     id="g11"
     style="fill:#ffffff;fill-opacity:1;stroke:#000000;stroke-width:0.62601566;stroke-miterlimit:4;stroke-dasharray:none;stroke-opacity:0.78431373"
     transform="translate(0.6260156,-5.7219844)" /><g
     id="g13"
     style="fill:#ffffff;fill-opacity:1;stroke:#000000;stroke-width:0.62601566;stroke-miterlimit:4;stroke-dasharray:none;stroke-opacity:0.78431373"
     transform="translate(0.6260156,-5.7219844)" /><g
     id="g15"
     style="fill:#ffffff;fill-opacity:1;stroke:#000000;stroke-width:0.62601566;stroke-miterlimit:4;stroke-dasharray:none;stroke-opacity:0.78431373"
     transform="translate(0.6260156,-5.7219844)" /><g
     id="g17"
     style="fill:#ffffff;fill-opacity:1;stroke:#000000;stroke-width:0.62601566;stroke-miterlimit:4;stroke-dasharray:none;stroke-opacity:0.78431373"
     transform="translate(0.6260156,-5.7219844)" /><g
     id="g19"
     style="fill:#ffffff;fill-opacity:1;stroke:#000000;stroke-width:0.62601566;stroke-miterlimit:4;stroke-dasharray:none;stroke-opacity:0.78431373"
     transform="translate(0.6260156,-5.7219844)" /><g
     id="g21"
     style="fill:#ffffff;fill-opacity:1;stroke:#000000;stroke-width:0.62601566;stroke-miterlimit:4;stroke-dasharray:none;stroke-opacity:0.78431373"
     transform="translate(0.6260156,-5.7219844)" /><g
     id="g23"
     style="fill:#ffffff;fill-opacity:1;stroke:#000000;stroke-width:0.62601566;stroke-miterlimit:4;stroke-dasharray:none;stroke-opacity:0.78431373"
     transform="translate(0.6260156,-5.7219844)" /><g
     id="g25"
     style="fill:#ffffff;fill-opacity:1;stroke:#000000;stroke-width:0.62601566;stroke-miterlimit:4;stroke-dasharray:none;stroke-opacity:0.78431373"
     transform="translate(0.6260156,-5.7219844)" /><g
     id="g27"
     style="fill:#ffffff;fill-opacity:1;stroke:#000000;stroke-width:0.62601566;stroke-miterlimit:4;stroke-dasharray:none;stroke-opacity:0.78431373"
     transform="translate(0.6260156,-5.7219844)" /><g
     id="g29"
     style="fill:#ffffff;fill-opacity:1;stroke:#000000;stroke-width:0.62601566;stroke-miterlimit:4;stroke-dasharray:none;stroke-opacity:0.78431373"
     transform="translate(0.6260156,-5.7219844)" /><g
     id="g31"
     style="fill:#ffffff;fill-opacity:1;stroke:#000000;stroke-width:0.62601566;stroke-miterlimit:4;stroke-dasharray:none;stroke-opacity:0.78431373"
     transform="translate(0.6260156,-5.7219844)" /><g
     id="g33"
     style="fill:#ffffff;fill-opacity:1;stroke:#000000;stroke-width:0.62601566;stroke-miterlimit:4;stroke-dasharray:none;stroke-opacity:0.78431373"
     transform="translate(0.6260156,-5.7219844)" /><g
     id="g35"
     style="fill:#ffffff;fill-opacity:1;stroke:#000000;stroke-width:0.62601566;stroke-miterlimit:4;stroke-dasharray:none;stroke-opacity:0.78431373"
     transform="translate(0.6260156,-5.7219844)" /></svg>